<svg width="200" height="200" viewBox="0 0 200 200" fill="none" xmlns="http://www.w3.org/2000/svg">
<rect width="200" height="200" fill="white"/>
<circle cx="55.4174" cy="99.5001" r="18.4174" fill="white" stroke="#D80A2F" stroke-width="2"/>
<circle cx="143.583" cy="99.5001" r="18.4174" fill="white" stroke="#D80A2F" stroke-width="2"/>
<path d="M99.5006 73.8347C89.329 73.8347 81.0833 65.589 81.0833 55.4174C81.0833 45.2457 89.329 37 99.5006 37C109.672 37 117.918 45.2457 117.918 55.4174C117.918 65.589 109.672 73.8347 99.5006 73.8347Z" fill="white" stroke="#D80A2F" stroke-width="2"/>
<path d="M99.5006 162C89.329 162 81.0833 153.754 81.0833 143.583C81.0833 133.411 89.329 125.165 99.5006 125.165C109.672 125.165 117.918 133.411 117.918 143.583C117.918 153.754 109.672 162 99.5006 162Z" fill="white" stroke="#D80A2F" stroke-width="2"/>
<path d="M88.53 70.1116C88.53 80.2832 80.2843 88.5289 70.1127 88.5289C59.941 88.5289 51.6953 80.2832 51.6953 70.1116C51.6953 59.9399 59.941 51.6942 70.1127 51.6942C80.2843 51.6942 88.53 59.9399 88.53 70.1116Z" fill="white" stroke="#D80A2F" stroke-width="2"/>
<path d="M147.305 70.1116C147.305 80.2832 139.06 88.5289 128.888 88.5289C118.716 88.5289 110.471 80.2832 110.471 70.1116C110.471 59.9399 118.716 51.6942 128.888 51.6942C139.06 51.6942 147.305 59.9399 147.305 70.1116Z" fill="white" stroke="#D80A2F" stroke-width="2"/>
<path d="M147.305 128.889C147.305 139.06 139.06 147.306 128.888 147.306C118.716 147.306 110.471 139.06 110.471 128.889C110.471 118.717 118.716 110.471 128.888 110.471C139.06 110.471 147.305 118.717 147.305 128.889Z" fill="white" stroke="#D80A2F" stroke-width="2"/>
<path d="M88.53 128.889C88.53 139.06 80.2843 147.306 70.1127 147.306C59.941 147.306 51.6953 139.06 51.6953 128.889C51.6953 118.717 59.941 110.471 70.1127 110.471C80.2843 110.471 88.53 118.717 88.53 128.889Z" fill="white" stroke="#D80A2F" stroke-width="2"/>
<circle cx="70.5" cy="70.5" r="12.5" stroke="#D80A2F" stroke-width="2"/>
<circle cx="70.5" cy="128.5" r="12.5" stroke="#D80A2F" stroke-width="2"/>
<circle cx="128.5" cy="70.5" r="12.5" stroke="#D80A2F" stroke-width="2"/>
<circle cx="128.5" cy="128.5" r="12.5" stroke="#D80A2F" stroke-width="2"/>
<path d="M81.5501 70.3664C85.3452 76.2593 91.9659 80.1649 99.5 80.1649C107.034 80.1649 113.655 76.2593 117.45 70.3664C121.992 73.1709 125.829 77.0082 128.634 81.5501C122.741 85.3452 118.835 91.9659 118.835 99.5C118.835 107.034 122.741 113.655 128.634 117.45C125.829 121.992 121.992 125.829 117.45 128.634C113.655 122.741 107.034 118.835 99.5 118.835C91.9659 118.835 85.3452 122.741 81.5501 128.634C77.0082 125.829 73.1709 121.992 70.3664 117.45C76.2593 113.655 80.1649 107.034 80.1649 99.5C80.1649 91.9659 76.2593 85.3452 70.3664 81.5501C73.1709 77.0082 77.0082 73.1709 81.5501 70.3664Z" fill="white" stroke="#D80A2F" stroke-width="2"/>
<mask id="path-14-inside-1" fill="white">
<path fill-rule="evenodd" clip-rule="evenodd" d="M99.5007 99.5749C101.358 98.6572 102.751 94.8477 102.751 90.2876C102.751 85.7275 101.358 81.9179 99.5007 81.0002C97.6429 81.9179 96.25 85.7275 96.25 90.2876C96.25 94.8477 97.6429 98.6572 99.5007 99.5749Z"/>
</mask>
<path fill-rule="evenodd" clip-rule="evenodd" d="M99.5007 99.5749C101.358 98.6572 102.751 94.8477 102.751 90.2876C102.751 85.7275 101.358 81.9179 99.5007 81.0002C97.6429 81.9179 96.25 85.7275 96.25 90.2876C96.25 94.8477 97.6429 98.6572 99.5007 99.5749Z" fill="white"/>
<path d="M99.5007 99.5749L98.6149 101.368L99.5007 101.806L100.386 101.368L99.5007 99.5749ZM99.5007 81.0002L100.386 79.2071L99.5007 78.7695L98.6149 79.2071L99.5007 81.0002ZM100.751 90.2876C100.751 92.3795 100.43 94.2406 99.9377 95.6288C99.4068 97.126 98.8254 97.6778 98.6149 97.7817L100.386 101.368C102.034 100.554 103.078 98.7425 103.708 96.9655C104.376 95.0794 104.751 92.7558 104.751 90.2876H100.751ZM98.6149 82.7934C98.8254 82.8973 99.4068 83.4491 99.9377 84.9464C100.43 86.3345 100.751 88.1957 100.751 90.2876H104.751C104.751 87.8194 104.376 85.4957 103.708 83.6096C103.078 81.8327 102.034 80.0208 100.386 79.2071L98.6149 82.7934ZM98.25 90.2876C98.25 88.1957 98.5715 86.3345 99.0637 84.9464C99.5946 83.4491 100.176 82.8973 100.386 82.7934L98.6149 79.2071C96.9676 80.0208 95.9237 81.8327 95.2937 83.6096C94.6249 85.4957 94.25 87.8194 94.25 90.2876H98.25ZM100.386 97.7817C100.176 97.6778 99.5946 97.126 99.0637 95.6288C98.5715 94.2406 98.25 92.3795 98.25 90.2876H94.25C94.25 92.7558 94.6249 95.0794 95.2937 96.9655C95.9237 98.7425 96.9676 100.554 98.6149 101.368L100.386 97.7817Z" fill="#D80A2F" mask="url(#path-14-inside-1)"/>
<mask id="path-16-inside-2" fill="white">
<path fill-rule="evenodd" clip-rule="evenodd" d="M99.4996 118C101.397 117.062 102.819 113.171 102.819 108.513C102.819 103.855 101.397 99.9643 99.4996 99.0261C97.6022 99.9643 96.1797 103.855 96.1797 108.513C96.1797 113.171 97.6022 117.062 99.4996 118Z"/>
</mask>
<path fill-rule="evenodd" clip-rule="evenodd" d="M99.4996 118C101.397 117.062 102.819 113.171 102.819 108.513C102.819 103.855 101.397 99.9643 99.4996 99.0261C97.6022 99.9643 96.1797 103.855 96.1797 108.513C96.1797 113.171 97.6022 117.062 99.4996 118Z" fill="white"/>
<path d="M99.4996 118L98.6131 119.793L99.4996 120.231L100.386 119.793L99.4996 118ZM99.4996 99.0261L100.386 97.2333L99.4996 96.795L98.6131 97.2333L99.4996 99.0261ZM100.819 108.513C100.819 110.654 100.491 112.56 99.986 113.983C99.4428 115.515 98.8438 116.093 98.6131 116.207L100.386 119.793C102.053 118.969 103.114 117.132 103.756 115.32C104.437 113.398 104.819 111.03 104.819 108.513H100.819ZM98.6131 100.819C98.8438 100.933 99.4428 101.511 99.986 103.043C100.491 104.466 100.819 106.372 100.819 108.513H104.819C104.819 105.996 104.437 103.628 103.756 101.707C103.114 99.8944 102.053 98.0574 100.386 97.2333L98.6131 100.819ZM98.1797 108.513C98.1797 106.372 98.5086 104.466 99.0132 103.043C99.5564 101.511 100.155 100.933 100.386 100.819L98.6131 97.2333C96.9465 98.0574 95.8855 99.8944 95.2431 101.707C94.562 103.628 94.1797 105.996 94.1797 108.513H98.1797ZM100.386 116.207C100.155 116.093 99.5564 115.515 99.0132 113.983C98.5086 112.56 98.1797 110.654 98.1797 108.513H94.1797C94.1797 111.03 94.562 113.398 95.2431 115.32C95.8855 117.132 96.9465 118.969 98.6131 119.793L100.386 116.207Z" fill="#D80A2F" mask="url(#path-16-inside-2)"/>
<mask id="path-18-inside-3" fill="white">
<path fill-rule="evenodd" clip-rule="evenodd" d="M99.5765 99.5005C98.6586 97.6428 94.8492 96.25 90.2892 96.25C85.7292 96.25 81.9198 97.6429 81.002 99.5005C81.9198 101.358 85.7292 102.751 90.2892 102.751C94.8492 102.751 98.6586 101.358 99.5765 99.5005Z"/>
</mask>
<path fill-rule="evenodd" clip-rule="evenodd" d="M99.5765 99.5005C98.6586 97.6428 94.8492 96.25 90.2892 96.25C85.7292 96.25 81.9198 97.6429 81.002 99.5005C81.9198 101.358 85.7292 102.751 90.2892 102.751C94.8492 102.751 98.6586 101.358 99.5765 99.5005Z" fill="white"/>
<path d="M99.5765 99.5005L101.37 100.386L101.807 99.5005L101.37 98.6146L99.5765 99.5005ZM81.002 99.5005L79.2089 98.6146L78.7712 99.5005L79.2089 100.386L81.002 99.5005ZM90.2892 98.25C92.3811 98.25 94.2422 98.5715 95.6303 99.0637C97.1275 99.5945 97.6794 100.176 97.7834 100.386L101.37 98.6146C100.556 96.9674 98.7439 95.9236 96.967 95.2936C95.0809 94.6249 92.7573 94.25 90.2892 94.25L90.2892 98.25ZM82.795 100.386C82.899 100.176 83.4509 99.5945 84.9481 99.0637C86.3362 98.5715 88.1974 98.25 90.2892 98.25L90.2892 94.25C87.8211 94.25 85.4975 94.6249 83.6114 95.2936C81.8345 95.9236 80.0227 96.9674 79.2089 98.6146L82.795 100.386ZM90.2892 100.751C88.1974 100.751 86.3362 100.429 84.9481 99.9373C83.4509 99.4065 82.899 98.825 82.795 98.6146L79.2089 100.386C80.0227 102.034 81.8345 103.077 83.6114 103.707C85.4975 104.376 87.8211 104.751 90.2892 104.751L90.2892 100.751ZM97.7834 98.6146C97.6794 98.825 97.1275 99.4065 95.6303 99.9373C94.2422 100.429 92.3811 100.751 90.2892 100.751L90.2892 104.751C92.7574 104.751 95.0809 104.376 96.967 103.707C98.7439 103.077 100.556 102.034 101.37 100.386L97.7834 98.6146Z" fill="#D80A2F" mask="url(#path-18-inside-3)"/>
<circle cx="99.5" cy="55.5" r="12.5" stroke="#D80A2F" stroke-width="2"/>
<mask id="path-21-inside-4" fill="white">
<path fill-rule="evenodd" clip-rule="evenodd" d="M118 99.5C117.062 97.6024 113.171 96.1796 108.513 96.1796C103.854 96.1796 99.9631 97.6024 99.0254 99.5C99.9631 101.398 103.854 102.82 108.513 102.82C113.171 102.82 117.062 101.398 118 99.5Z"/>
</mask>
<path fill-rule="evenodd" clip-rule="evenodd" d="M118 99.5C117.062 97.6024 113.171 96.1796 108.513 96.1796C103.854 96.1796 99.9631 97.6024 99.0254 99.5C99.9631 101.398 103.854 102.82 108.513 102.82C113.171 102.82 117.062 101.398 118 99.5Z" fill="white"/>
<path d="M118 99.5L119.793 100.386L120.231 99.5L119.793 98.6139L118 99.5ZM99.0254 99.5L97.2324 98.6139L96.7945 99.5L97.2324 100.386L99.0254 99.5ZM108.513 98.1796C110.653 98.1796 112.56 98.5086 113.983 99.0132C115.515 99.5565 116.093 100.155 116.207 100.386L119.793 98.6139C118.969 96.9469 117.132 95.8856 115.32 95.2432C113.398 94.562 111.03 94.1796 108.513 94.1796L108.513 98.1796ZM100.818 100.386C100.932 100.155 101.51 99.5565 103.042 99.0132C104.466 98.5086 106.372 98.1796 108.513 98.1796L108.513 94.1796C105.995 94.1796 103.627 94.562 101.706 95.2432C99.8933 95.8856 98.0561 96.9469 97.2324 98.6139L100.818 100.386ZM108.513 100.82C106.372 100.82 104.466 100.491 103.042 99.9867C101.51 99.4434 100.932 98.8444 100.818 98.6139L97.2324 100.386C98.0561 102.053 99.8933 103.114 101.706 103.757C103.627 104.438 105.995 104.82 108.513 104.82L108.513 100.82ZM116.207 98.6139C116.093 98.8444 115.515 99.4434 113.983 99.9867C112.56 100.491 110.653 100.82 108.513 100.82L108.513 104.82C111.03 104.82 113.398 104.438 115.32 103.757C117.132 103.114 118.969 102.053 119.793 100.386L116.207 98.6139Z" fill="#D80A2F" mask="url(#path-21-inside-4)"/>
<circle cx="99.5" cy="143.5" r="12.5" stroke="#D80A2F" stroke-width="2"/>
<circle cx="143.5" cy="99.5" r="12.5" stroke="#D80A2F" stroke-width="2"/>
<circle cx="55.5" cy="99.5" r="12.5" stroke="#D80A2F" stroke-width="2"/>
</svg>
