<svg width="121" height="121" viewBox="0 0 121 121" fill="none" xmlns="http://www.w3.org/2000/svg">
<rect width="98.3125" height="98.45" transform="translate(22 22)" fill="white"/>
<path d="M97.9822 120.45H44.3303C32.0189 120.45 22 110.422 22 98.0884V44.3616C22 32.0329 32.0189 22 44.3303 22H97.9822C110.298 22 120.312 32.0329 120.312 44.3616V98.0884C120.312 110.422 110.298 120.45 97.9822 120.45ZM44.3303 30.95C36.9435 30.95 30.9375 36.9644 30.9375 44.3616V98.0884C30.9375 105.481 36.9435 111.5 44.3303 111.5H97.9822C105.365 111.5 111.375 105.481 111.375 98.0884V44.3616C111.375 36.9644 105.365 30.95 97.9822 30.95H44.3303Z" fill="#333333"/>
<rect width="98.3125" height="98.45" transform="translate(0 0.375)" fill="white"/>
<path d="M75.9822 98.825H22.3303C10.0189 98.825 0 88.7965 0 76.4634V22.7366C0 10.4079 10.0189 0.375 22.3303 0.375H75.9822C88.298 0.375 98.3125 10.4079 98.3125 22.7366V76.4634C98.3125 88.7965 88.298 98.825 75.9822 98.825ZM22.3303 9.325C14.9435 9.325 8.9375 15.3394 8.9375 22.7366V76.4634C8.9375 83.8561 14.9435 89.875 22.3303 89.875H75.9822C83.3645 89.875 89.375 83.8561 89.375 76.4634V22.7366C89.375 15.3394 83.3645 9.325 75.9822 9.325H22.3303Z" fill="#333333"/>
</svg>
