<svg width="122" height="150" viewBox="0 0 122 150" fill="none" xmlns="http://www.w3.org/2000/svg">
<path d="M118.031 114.895L94.9111 86.765L98.9256 82.7505C101.534 80.1426 102.969 76.6849 102.969 72.9928C102.969 69.3006 101.534 65.8429 98.9256 63.235L81.7543 46.0637C78.4138 42.7232 73.2272 39.8222 67.9527 38.1227C71.7621 34.0789 74.1063 28.6286 74.1063 22.6216C74.1063 10.1387 63.9676 0 51.4847 0C39.0018 0 28.8631 10.1387 28.8631 22.6216C28.8631 28.5993 31.2073 34.0789 35.0166 38.1227C29.7421 39.8515 24.5556 42.7232 21.2151 46.0637L4.04376 63.235C1.43583 65.8429 0 69.3006 0 72.9928C0 76.6849 1.43583 80.1426 4.04376 82.7505L13.4499 92.1567C16.0578 94.7646 19.5155 96.2004 23.2077 96.2004C24.9658 96.2004 26.6361 95.8781 28.2184 95.2627V136.198C28.2184 143.817 34.4012 150 42.0199 150C45.6535 150 48.9646 148.593 51.4261 146.279C53.8875 148.593 57.1987 150 60.8322 150C68.4509 150 74.6337 143.817 74.6337 136.198V131.188H110.266C115.13 131.188 118.793 129.283 120.346 126.001C121.987 122.69 121.108 118.646 118.031 114.895ZM51.4847 8.76148C59.1033 8.76148 65.3155 14.9736 65.3155 22.5923C65.3155 30.211 59.1033 36.4231 51.4847 36.4231C43.866 36.4231 37.6538 30.211 37.6538 22.5923C37.6538 14.9736 43.8367 8.76148 51.4847 8.76148ZM26.7826 85.9445C25.8449 86.8822 24.5849 87.4096 23.237 87.4096C21.889 87.4096 20.629 86.8822 19.6913 85.9445L10.2559 76.5091C9.31823 75.5714 8.79078 74.3114 8.79078 72.9635C8.79078 71.6155 9.31823 70.3555 10.2559 69.4179L27.4272 52.2465C31.178 48.4958 39.119 45.2139 44.4227 45.2139H58.5466C63.8504 45.2139 71.7914 48.4958 75.5421 52.2465L92.7134 69.4179C93.6511 70.3555 94.1786 71.6155 94.1786 72.9635C94.1786 74.3114 93.6511 75.5714 92.7134 76.5091L83.3073 85.9152C81.344 87.8785 78.1793 87.8785 76.2161 85.9152C75.2784 84.9775 74.7509 83.7175 74.7509 82.3989V82.3403C74.7509 81.0217 75.2784 79.7617 76.2161 78.824L78.9705 76.0695C79.791 75.2491 80.2598 74.1356 80.2598 72.9635C80.2598 71.7914 79.791 70.6779 78.9705 69.8574L73.4616 64.3485C72.2016 63.0885 70.3262 62.7076 68.6853 63.3815C67.0443 64.0555 65.9602 65.6671 65.9602 67.4546V82.3403V82.3696C65.9602 82.3989 65.9602 82.3989 65.9602 82.3989V84.6845H37.0971V82.3989C37.0971 82.3696 37.0971 82.3696 37.0971 82.3403C37.0971 82.311 37.0971 82.311 37.0971 82.2817V67.396C37.0971 65.6085 36.0129 64.0262 34.372 63.3229C32.731 62.6489 30.8263 63.0299 29.5956 64.2606L24.0281 69.8574C23.2077 70.6779 22.7388 71.7914 22.7388 72.9635C22.7388 74.1356 23.2077 75.2491 24.0281 76.0695L26.7826 78.824C27.7203 79.7617 28.2477 81.0217 28.2477 82.3403V82.3989C28.2477 83.7468 27.7203 85.0068 26.7826 85.9445ZM65.9015 136.198C65.9015 138.953 63.6452 141.209 60.8908 141.209C58.1364 141.209 55.8801 138.953 55.8801 136.198V107.951C55.8801 105.519 53.9168 103.555 51.4847 103.555C49.0526 103.555 47.0893 105.519 47.0893 107.951V136.198C47.0893 138.953 44.833 141.209 42.0785 141.209C39.3241 141.209 37.0678 138.953 37.0678 136.198V93.5046H65.9308V136.198H65.9015ZM110.324 122.368H74.6923V95.2334C79.2928 97.0209 84.6552 96.259 88.6111 92.9185L111.233 120.434C111.848 121.196 112.141 121.752 112.288 122.104C111.936 122.25 111.321 122.368 110.324 122.368Z" fill="#333333"/>
</svg>
