<svg width="148" height="150" viewBox="0 0 148 150" fill="none" xmlns="http://www.w3.org/2000/svg">
<path d="M147.522 112.767L134.786 30.628C134.637 29.5912 134.219 28.6434 133.593 27.7844L114.504 2.51777C113.311 0.918246 111.402 0 109.404 0H83.9618C81.8441 0 79.8457 1.06635 78.6824 2.81398L65.9465 21.7713C64.5148 23.904 64.5148 26.6588 65.9465 28.7915L78.6824 47.7488C79.8755 49.4964 81.8441 50.5628 83.9618 50.5628H102.066L98.9347 72.423C91.15 66.1137 81.2774 62.8258 71.2258 63.2109C61.055 62.737 50.9736 65.2844 42.2642 70.5273C36.1498 52.6066 26.8141 31.6055 1.25272 31.6055V44.2536C18.9399 44.2536 25.1736 59.0936 32.0337 80.0652C32.4513 82.6126 33.6145 84.9822 35.3146 86.9076C38.2078 89.1291 42.3835 88.6256 44.6205 85.7524C44.7697 85.5746 44.889 85.3673 45.0083 85.1896C45.2171 84.8045 50.5858 75.8886 71.196 75.8886C91.478 75.8886 96.7872 89.9882 96.9661 90.5213C98.189 93.8092 101.858 95.5273 105.198 94.3128C107.346 93.5427 108.927 91.6765 109.314 89.4254L115.727 45.0829C116.174 41.5581 113.669 38.359 110.12 37.9147C109.881 37.8851 109.672 37.8554 109.434 37.8554H87.3918L78.8912 25.2073L87.362 12.5592H106.242L122.468 34.0344L134.428 111.167C124.317 119.254 81.3072 148.371 2.53526 132.731L0 145.113C15.5993 148.282 31.4372 149.911 47.3646 150C112.715 150 144.152 119.668 145.733 118.098C147.134 116.765 147.82 114.751 147.522 112.767Z" fill="#333333"/>
<path d="M77.6088 126.362V106.576L86.7954 112.678L93.8643 102.162L74.7753 89.5141C72.6278 88.1515 69.8539 88.1515 67.7064 89.5141L48.6174 102.162L55.6863 112.678L64.8729 106.605V126.392H77.6088V126.362Z" fill="#333333"/>
</svg>
