<svg width="95" height="95" viewBox="0 0 95 95" fill="none" xmlns="http://www.w3.org/2000/svg">
<path d="M52.1 28.0002L37.1 44.1002L31 37.5002C29.1 35.4002 25.9 35.3002 23.8 37.2002C21.7 39.1002 21.6 42.3002 23.5 44.4002L33.4 55.0002C34.4 56.0002 35.7 56.6002 37.1 56.6002C38.5 56.6002 39.9 56.0002 40.8 55.0002L59.5 35.0002C61.4 32.9002 61.3 29.7002 59.2 27.8002C57.2 25.8002 54 26.0002 52.1 28.0002Z" fill="#333333"/>
<path d="M93.5 86.3L74.3 67.1C79.8 60.1 83.1 51.2 83.1 41.6C83.1 18.6 64.4 0 41.5 0C18.6 0 0 18.6 0 41.5C0 64.4 18.6 83.1 41.5 83.1C51.1 83.1 60 79.8 67 74.3L86.3 93.5C87.3 94.5 88.6 95 89.9 95C91.2 95 92.5 94.5 93.5 93.5C95.5 91.5 95.5 88.3 93.5 86.3ZM10.2 41.5C10.2 24.2 24.3 10.1 41.6 10.1C58.9 10.1 72.9 24.3 72.9 41.5C72.9 58.7 58.8 72.9 41.5 72.9C24.2 72.9 10.2 58.8 10.2 41.5Z" fill="#333333"/>
</svg>
