<svg width="150" height="138" viewBox="0 0 150 138" fill="none" xmlns="http://www.w3.org/2000/svg">
<path d="M24.8147 32.7832C27.2463 32.7832 29.2092 30.8203 29.2092 28.3887V24.6973C29.2092 22.2656 27.2463 20.3027 24.8147 20.3027C22.3831 20.3027 20.4202 22.2656 20.4202 24.6973V28.3887C20.4202 30.8203 22.3831 32.7832 24.8147 32.7832Z" fill="#333333"/>
<path d="M33.6035 67.2363C52.1191 67.2363 67.207 52.1484 67.207 33.6328C67.207 15.1172 52.1191 0 33.6035 0C15.0586 0 0 15.0879 0 33.6328C0 52.1484 15.0586 67.2363 33.6035 67.2363ZM33.6035 8.78906C47.2852 8.78906 58.418 19.9219 58.418 33.6035C58.418 47.2852 47.2852 58.418 33.6035 58.418C19.9219 58.4473 8.78906 47.3145 8.78906 33.6328C8.78906 19.9219 19.9219 8.78906 33.6035 8.78906Z" fill="#333333"/>
<path d="M42.3928 32.7832C44.8245 32.7832 46.7874 30.8203 46.7874 28.3887V24.6973C46.7874 22.2656 44.8245 20.3027 42.3928 20.3027C39.9612 20.3027 37.9983 22.2656 37.9983 24.6973V28.3887C37.9983 30.8203 39.9612 32.7832 42.3928 32.7832Z" fill="#333333"/>
<path d="M21.7087 39.9026C19.9802 41.6311 19.9802 44.4143 21.7087 46.1135C24.99 49.3948 29.2966 51.0354 33.6033 51.0354C37.9099 51.0354 42.2166 49.3948 45.4978 46.1135C47.2263 44.385 47.2263 41.6018 45.4978 39.9026C43.7693 38.2034 41.0154 38.1741 39.2869 39.9026C36.1521 43.0374 31.0544 43.0374 27.9197 39.9026C26.1912 38.2034 23.408 38.2034 21.7087 39.9026Z" fill="#333333"/>
<path d="M77.5195 23.4087H145.605C148.037 23.4087 150 21.4458 150 19.0142C150 16.5825 148.037 14.6196 145.605 14.6196H77.5195C75.0879 14.6196 73.125 16.5825 73.125 19.0142C73.125 21.4458 75.0879 23.4087 77.5195 23.4087Z" fill="#333333"/>
<path d="M145.605 29.2681H77.5195C75.0879 29.2681 73.125 31.231 73.125 33.6626C73.125 36.0942 75.0879 38.0571 77.5195 38.0571H145.605C148.037 38.0571 150 36.0942 150 33.6626C150 31.231 148.037 29.2681 145.605 29.2681Z" fill="#333333"/>
<path d="M139.072 48.252C139.072 45.8203 137.109 43.8574 134.678 43.8574H77.5195C75.0879 43.8574 73.125 45.8203 73.125 48.252C73.125 50.6836 75.0879 52.6465 77.5195 52.6465H134.678C137.109 52.6465 139.072 50.6836 139.072 48.252Z" fill="#333333"/>
<path d="M107.607 103.535C110.039 103.535 112.002 101.572 112.002 99.1406V95.4492C112.002 93.0176 110.039 91.0547 107.607 91.0547C105.176 91.0547 103.213 93.0176 103.213 95.4492V99.1406C103.213 101.543 105.205 103.535 107.607 103.535Z" fill="#333333"/>
<path d="M116.396 70.752C97.8809 70.752 82.793 85.8398 82.793 104.355C82.793 122.871 97.8516 137.959 116.396 137.959C134.941 137.959 150 122.9 150 104.355C150 85.8398 134.941 70.752 116.396 70.752ZM116.396 129.199C102.715 129.199 91.582 118.066 91.582 104.385C91.582 90.7031 102.715 79.5703 116.396 79.5703C130.078 79.5703 141.211 90.7031 141.211 104.385C141.211 118.066 130.078 129.199 116.396 129.199Z" fill="#333333"/>
<path d="M125.185 103.535C127.617 103.535 129.58 101.572 129.58 99.1406V95.4492C129.58 93.0176 127.617 91.0547 125.185 91.0547C122.754 91.0547 120.791 93.0176 120.791 95.4492V99.1406C120.791 101.543 122.754 103.535 125.185 103.535Z" fill="#333333"/>
<path d="M116.396 109.365C111.914 109.365 107.695 111.123 104.502 114.287C102.773 116.016 102.773 118.799 104.502 120.498C106.23 122.227 108.984 122.227 110.713 120.498C113.848 117.363 118.945 117.363 122.08 120.498C122.93 121.348 124.072 121.787 125.186 121.787C126.299 121.787 127.441 121.348 128.291 120.498C130.02 118.77 130.02 115.986 128.291 114.287C125.127 111.094 120.908 109.365 116.396 109.365Z" fill="#333333"/>
<path d="M72.5391 114.58H4.39453C1.96289 114.58 0 116.542 0 118.974C0 121.406 1.96289 123.369 4.39453 123.369H72.5391C74.9707 123.369 76.9336 121.406 76.9336 118.974C76.9336 116.542 74.9414 114.58 72.5391 114.58Z" fill="#333333"/>
<path d="M72.5391 99.9312H4.39453C1.96289 99.9312 0 101.894 0 104.326C0 106.757 1.96289 108.72 4.39453 108.72H72.5391C74.9707 108.72 76.9336 106.757 76.9336 104.326C76.9336 101.894 74.9414 99.9312 72.5391 99.9312Z" fill="#333333"/>
<path d="M72.5388 85.3418H15.322C12.8904 85.3418 10.9275 87.3047 10.9275 89.7363C10.9275 92.168 12.8904 94.1309 15.322 94.1309H72.5095C74.9411 94.1309 76.904 92.168 76.904 89.7363C76.904 87.3047 74.9411 85.3418 72.5388 85.3418Z" fill="#333333"/>
</svg>
