<svg width="108" height="144" viewBox="0 0 108 144" fill="none" xmlns="http://www.w3.org/2000/svg">
<path d="M75.9822 120.825H22.3303C10.0189 120.825 0 110.797 0 98.4634V44.7366C0 32.4079 10.0189 22.375 22.3303 22.375H75.9822C88.298 22.375 98.3125 32.4079 98.3125 44.7366V98.4634C98.3125 110.797 88.298 120.825 75.9822 120.825ZM22.3303 31.325C14.9435 31.325 8.9375 37.3394 8.9375 44.7366V98.4634C8.9375 105.856 14.9435 111.875 22.3303 111.875H75.9822C83.3645 111.875 89.375 105.856 89.375 98.4634V44.7366C89.375 37.3394 83.3645 31.325 75.9822 31.325H22.3303ZM81.2017 31.9291C80.3749 31.9291 79.5393 31.7009 78.793 31.2221C71.71 26.671 68.7651 16.5799 67.5452 8.90973L30.7584 8.95C29.5474 16.5754 26.6114 26.671 19.5195 31.2221C17.4371 32.5512 14.6754 31.947 13.3437 29.8706C12.012 27.7898 12.6153 25.0197 14.6977 23.6862C17.9554 21.5919 20.6635 15.5417 21.9416 7.5001C22.6297 3.15487 26.3433 0 30.7584 0H67.5541C71.9782 0 75.6872 3.15935 76.3754 7.50905C77.6535 15.5461 80.3615 21.5964 83.6192 23.6862C85.6972 25.0197 86.3005 27.7897 84.9688 29.8661C84.1153 31.2042 82.6719 31.9291 81.2017 31.9291V31.9291ZM67.5541 143.2H30.7539C26.3388 143.2 22.6342 140.05 21.9371 135.704C20.659 127.69 17.951 121.657 14.6933 119.568C12.6153 118.234 12.0075 115.468 13.3437 113.383C14.6754 111.302 17.4415 110.689 19.515 112.032C26.6025 116.583 29.5429 126.647 30.7629 134.29L67.5541 134.25C68.7651 126.647 71.71 116.583 78.793 112.032C80.8665 110.689 83.6327 111.302 84.9688 113.383C86.3005 115.464 85.6972 118.234 83.6192 119.568C80.3615 121.662 77.6535 127.69 76.3754 135.7C75.6827 140.05 71.9692 143.2 67.5541 143.2V143.2ZM98.3125 80.55H93.8438C91.3725 80.55 89.375 78.5497 89.375 76.075V67.125C89.375 64.6548 91.3725 62.65 93.8438 62.65H98.3125C103.242 62.65 107.25 66.6641 107.25 71.6C107.25 76.5359 103.242 80.55 98.3125 80.55ZM44.6875 89.5C43.5033 89.5 42.3682 89.0346 41.5281 88.1888L28.1218 74.7638C26.3746 73.0141 26.3746 70.1859 28.1218 68.4362C29.8691 66.6864 32.6934 66.6864 34.4407 68.4362L44.3881 78.3975L63.5993 55.311C65.1812 53.4181 67.992 53.1541 69.8957 54.7382C71.7905 56.3224 72.0452 59.1416 70.4677 61.039L48.124 87.889C47.3196 88.8556 46.1488 89.4373 44.8931 89.491L44.6875 89.5V89.5Z" fill="#333333"/>
</svg>
