<svg width="1634" height="594" viewBox="0 0 1634 594" fill="none" xmlns="http://www.w3.org/2000/svg">
<rect width="1634" height="594" fill="white"/>
<path d="M953 299H1091.31C1092.41 299 1093.3 298.122 1093.33 297.017C1094.1 267.236 1112.24 211.607 1179.97 210.516C1181.07 210.498 1182 209.605 1182 208.5V121" stroke="#FF5960" stroke-width="10" stroke-linecap="round"/>
<path d="M369 299H507.306C508.411 299 509.304 298.122 509.332 297.017C510.102 267.236 528.239 211.607 595.968 210.516C597.072 210.498 598 209.605 598 208.5V121" stroke="#FF5960" stroke-width="10" stroke-linecap="round"/>
<path d="M662 299H800C801.105 299 801.997 299.878 802.026 300.983C802.794 330.763 820.891 386.39 888.468 387.484C889.572 387.502 890.5 388.395 890.5 389.5V477" stroke="#FF5960" stroke-width="10" stroke-linecap="round"/>
<path d="M1246 299H1384C1385.1 299 1386 299.878 1386.03 300.983C1386.79 330.763 1404.89 386.39 1472.47 387.484C1473.57 387.502 1474.5 388.395 1474.5 389.5V477" stroke="#FF5960" stroke-width="10" stroke-linecap="round"/>
<g filter="url(#filter0_d)">
<circle cx="308.5" cy="295.5" r="70.5" fill="white"/>
</g>
<g filter="url(#filter1_d)">
<circle cx="599.5" cy="295.5" r="70.5" fill="white"/>
</g>
<g filter="url(#filter2_d)">
<circle cx="890.5" cy="295.5" r="70.5" fill="white"/>
</g>
<g filter="url(#filter3_d)">
<circle cx="1181.5" cy="295.5" r="70.5" fill="white"/>
</g>
<g filter="url(#filter4_d)">
<circle cx="1472.5" cy="295.5" r="70.5" fill="white"/>
</g>
<path d="M78 299H216C217.105 299 217.997 299.878 218.026 300.983C218.794 330.763 236.891 386.39 304.468 387.484C305.572 387.502 306.5 388.395 306.5 389.5V477" stroke="#FF5960" stroke-width="10" stroke-linecap="round"/>
<circle cx="307" cy="485" r="15" fill="#FF5960"/>
<circle cx="891" cy="485" r="15" fill="#FF5960"/>
<circle cx="1475" cy="485" r="15" fill="#FF5960"/>
<circle cx="598" cy="110" r="15" fill="#FF5960"/>
<circle cx="1182" cy="110" r="15" fill="#FF5960"/>
<path d="M266.305 173.094H269.75V187.053C269.75 188.958 269.153 190.471 267.959 191.592C266.774 192.713 265.206 193.273 263.256 193.273C261.178 193.273 259.574 192.749 258.443 191.701C257.313 190.653 256.748 189.195 256.748 187.326H260.193C260.193 188.383 260.453 189.181 260.973 189.719C261.501 190.247 262.262 190.512 263.256 190.512C264.186 190.512 264.924 190.206 265.471 189.596C266.027 188.976 266.305 188.124 266.305 187.039V173.094ZM282.232 193C282.087 192.717 281.959 192.257 281.85 191.619C280.792 192.722 279.498 193.273 277.967 193.273C276.481 193.273 275.269 192.85 274.33 192.002C273.391 191.154 272.922 190.106 272.922 188.857C272.922 187.281 273.505 186.073 274.672 185.234C275.848 184.387 277.525 183.963 279.703 183.963H281.74V182.992C281.74 182.227 281.526 181.616 281.098 181.16C280.669 180.695 280.018 180.463 279.143 180.463C278.386 180.463 277.766 180.654 277.283 181.037C276.8 181.411 276.559 181.889 276.559 182.473H273.236C273.236 181.661 273.505 180.905 274.043 180.203C274.581 179.492 275.31 178.936 276.23 178.535C277.16 178.134 278.195 177.934 279.334 177.934C281.066 177.934 282.447 178.371 283.477 179.246C284.507 180.112 285.035 181.333 285.062 182.91V189.582C285.062 190.913 285.249 191.975 285.623 192.768V193H282.232ZM278.582 190.607C279.238 190.607 279.854 190.448 280.428 190.129C281.011 189.81 281.449 189.382 281.74 188.844V186.055H279.949C278.719 186.055 277.794 186.269 277.174 186.697C276.554 187.126 276.244 187.732 276.244 188.516C276.244 189.154 276.454 189.664 276.873 190.047C277.301 190.421 277.871 190.607 278.582 190.607ZM291.625 178.207L291.721 179.916C292.814 178.594 294.25 177.934 296.027 177.934C299.108 177.934 300.676 179.697 300.73 183.225V193H297.408V183.416C297.408 182.477 297.203 181.785 296.793 181.338C296.392 180.882 295.731 180.654 294.811 180.654C293.471 180.654 292.473 181.26 291.816 182.473V193H288.494V178.207H291.625ZM313.09 191.551C312.115 192.699 310.729 193.273 308.934 193.273C307.329 193.273 306.113 192.804 305.283 191.865C304.463 190.926 304.053 189.568 304.053 187.791V178.207H307.375V187.75C307.375 189.628 308.154 190.566 309.713 190.566C311.326 190.566 312.415 189.988 312.98 188.83V178.207H316.303V193H313.172L313.09 191.551ZM328.525 193C328.38 192.717 328.252 192.257 328.143 191.619C327.085 192.722 325.791 193.273 324.26 193.273C322.774 193.273 321.562 192.85 320.623 192.002C319.684 191.154 319.215 190.106 319.215 188.857C319.215 187.281 319.798 186.073 320.965 185.234C322.141 184.387 323.818 183.963 325.996 183.963H328.033V182.992C328.033 182.227 327.819 181.616 327.391 181.16C326.962 180.695 326.311 180.463 325.436 180.463C324.679 180.463 324.059 180.654 323.576 181.037C323.093 181.411 322.852 181.889 322.852 182.473H319.529C319.529 181.661 319.798 180.905 320.336 180.203C320.874 179.492 321.603 178.936 322.523 178.535C323.453 178.134 324.488 177.934 325.627 177.934C327.359 177.934 328.74 178.371 329.77 179.246C330.799 180.112 331.328 181.333 331.355 182.91V189.582C331.355 190.913 331.542 191.975 331.916 192.768V193H328.525ZM324.875 190.607C325.531 190.607 326.146 190.448 326.721 190.129C327.304 189.81 327.742 189.382 328.033 188.844V186.055H326.242C325.012 186.055 324.087 186.269 323.467 186.697C322.847 187.126 322.537 187.732 322.537 188.516C322.537 189.154 322.747 189.664 323.166 190.047C323.594 190.421 324.164 190.607 324.875 190.607ZM342.58 181.242C342.143 181.169 341.691 181.133 341.227 181.133C339.704 181.133 338.679 181.716 338.15 182.883V193H334.828V178.207H338L338.082 179.861C338.884 178.576 339.996 177.934 341.418 177.934C341.892 177.934 342.284 177.997 342.594 178.125L342.58 181.242ZM350.1 188.242L353.107 178.207H356.648L350.77 195.242C349.867 197.73 348.336 198.975 346.176 198.975C345.693 198.975 345.16 198.893 344.576 198.729V196.158L345.205 196.199C346.044 196.199 346.673 196.044 347.092 195.734C347.52 195.434 347.857 194.923 348.104 194.203L348.582 192.932L343.387 178.207H346.969L350.1 188.242Z" fill="#FF5960"/>
<path d="M557.896 411.564H549.885V420H546.426V400.094H559.072V402.883H549.885V408.803H557.896V411.564ZM567.713 420.273C565.607 420.273 563.898 419.613 562.586 418.291C561.283 416.96 560.631 415.192 560.631 412.986V412.576C560.631 411.1 560.913 409.783 561.479 408.625C562.053 407.458 562.855 406.551 563.885 405.904C564.915 405.257 566.063 404.934 567.33 404.934C569.344 404.934 570.898 405.576 571.992 406.861C573.095 408.146 573.646 409.965 573.646 412.316V413.656H563.98C564.081 414.878 564.486 415.844 565.197 416.555C565.917 417.266 566.82 417.621 567.904 417.621C569.426 417.621 570.666 417.006 571.623 415.775L573.414 417.484C572.822 418.368 572.029 419.057 571.035 419.549C570.051 420.032 568.943 420.273 567.713 420.273ZM567.316 407.6C566.405 407.6 565.667 407.919 565.102 408.557C564.546 409.195 564.19 410.083 564.035 411.223H570.365V410.977C570.292 409.865 569.996 409.026 569.477 408.461C568.957 407.887 568.237 407.6 567.316 407.6ZM589.219 412.754C589.219 415.051 588.704 416.878 587.674 418.236C586.653 419.594 585.245 420.273 583.449 420.273C581.717 420.273 580.368 419.649 579.402 418.4L579.238 420H576.23V399H579.553V406.629C580.51 405.499 581.799 404.934 583.422 404.934C585.227 404.934 586.644 405.604 587.674 406.943C588.704 408.283 589.219 410.156 589.219 412.562V412.754ZM585.896 412.467C585.896 410.863 585.614 409.66 585.049 408.857C584.484 408.055 583.663 407.654 582.588 407.654C581.148 407.654 580.136 408.283 579.553 409.541V415.639C580.145 416.924 581.166 417.566 582.615 417.566C583.654 417.566 584.456 417.179 585.021 416.404C585.587 415.63 585.878 414.458 585.896 412.891V412.467ZM599.76 408.242C599.322 408.169 598.871 408.133 598.406 408.133C596.884 408.133 595.859 408.716 595.33 409.883V420H592.008V405.207H595.18L595.262 406.861C596.064 405.576 597.176 404.934 598.598 404.934C599.072 404.934 599.464 404.997 599.773 405.125L599.76 408.242ZM610.82 418.551C609.845 419.699 608.46 420.273 606.664 420.273C605.06 420.273 603.843 419.804 603.014 418.865C602.193 417.926 601.783 416.568 601.783 414.791V405.207H605.105V414.75C605.105 416.628 605.885 417.566 607.443 417.566C609.057 417.566 610.146 416.988 610.711 415.83V405.207H614.033V420H610.902L610.82 418.551ZM626.256 420C626.11 419.717 625.982 419.257 625.873 418.619C624.816 419.722 623.521 420.273 621.99 420.273C620.505 420.273 619.292 419.85 618.354 419.002C617.415 418.154 616.945 417.106 616.945 415.857C616.945 414.281 617.529 413.073 618.695 412.234C619.871 411.387 621.548 410.963 623.727 410.963H625.764V409.992C625.764 409.227 625.549 408.616 625.121 408.16C624.693 407.695 624.041 407.463 623.166 407.463C622.41 407.463 621.79 407.654 621.307 408.037C620.824 408.411 620.582 408.889 620.582 409.473H617.26C617.26 408.661 617.529 407.905 618.066 407.203C618.604 406.492 619.333 405.936 620.254 405.535C621.184 405.134 622.218 404.934 623.357 404.934C625.089 404.934 626.47 405.371 627.5 406.246C628.53 407.112 629.059 408.333 629.086 409.91V416.582C629.086 417.913 629.273 418.975 629.646 419.768V420H626.256ZM622.605 417.607C623.262 417.607 623.877 417.448 624.451 417.129C625.035 416.81 625.472 416.382 625.764 415.844V413.055H623.973C622.742 413.055 621.817 413.269 621.197 413.697C620.577 414.126 620.268 414.732 620.268 415.516C620.268 416.154 620.477 416.664 620.896 417.047C621.325 417.421 621.895 417.607 622.605 417.607ZM640.311 408.242C639.873 408.169 639.422 408.133 638.957 408.133C637.435 408.133 636.41 408.716 635.881 409.883V420H632.559V405.207H635.73L635.812 406.861C636.615 405.576 637.727 404.934 639.148 404.934C639.622 404.934 640.014 404.997 640.324 405.125L640.311 408.242ZM647.83 415.242L650.838 405.207H654.379L648.5 422.242C647.598 424.73 646.066 425.975 643.906 425.975C643.423 425.975 642.89 425.893 642.307 425.729V423.158L642.936 423.199C643.774 423.199 644.403 423.044 644.822 422.734C645.251 422.434 645.588 421.923 645.834 421.203L646.312 419.932L641.117 405.207H644.699L647.83 415.242Z" fill="#FF5960"/>
<path d="M1165.2 415.365H1157.48L1155.87 420H1152.28L1159.79 400.094H1162.9L1170.43 420H1166.82L1165.2 415.365ZM1158.46 412.576H1164.22L1161.34 404.318L1158.46 412.576ZM1184.68 412.754C1184.68 415.042 1184.16 416.869 1183.12 418.236C1182.08 419.594 1180.69 420.273 1178.94 420.273C1177.31 420.273 1176.01 419.74 1175.04 418.674V425.688H1171.72V405.207H1174.78L1174.92 406.711C1175.89 405.526 1177.22 404.934 1178.89 404.934C1180.7 404.934 1182.11 405.608 1183.13 406.957C1184.16 408.297 1184.68 410.161 1184.68 412.549V412.754ZM1181.37 412.467C1181.37 410.99 1181.07 409.819 1180.48 408.953C1179.9 408.087 1179.06 407.654 1177.96 407.654C1176.61 407.654 1175.63 408.215 1175.04 409.336V415.898C1175.64 417.047 1176.62 417.621 1177.99 417.621C1179.05 417.621 1179.87 417.197 1180.47 416.35C1181.07 415.493 1181.37 414.199 1181.37 412.467ZM1195.25 408.242C1194.81 408.169 1194.36 408.133 1193.89 408.133C1192.37 408.133 1191.35 408.716 1190.82 409.883V420H1187.49V405.207H1190.67L1190.75 406.861C1191.55 405.576 1192.66 404.934 1194.08 404.934C1194.56 404.934 1194.95 404.997 1195.26 405.125L1195.25 408.242ZM1200.88 420H1197.56V405.207H1200.88V420ZM1197.35 401.365C1197.35 400.855 1197.51 400.431 1197.83 400.094C1198.16 399.757 1198.62 399.588 1199.22 399.588C1199.83 399.588 1200.29 399.757 1200.62 400.094C1200.95 400.431 1201.11 400.855 1201.11 401.365C1201.11 401.867 1200.95 402.286 1200.62 402.623C1200.29 402.951 1199.83 403.115 1199.22 403.115C1198.62 403.115 1198.16 402.951 1197.83 402.623C1197.51 402.286 1197.35 401.867 1197.35 401.365ZM1208.04 420H1204.72V399H1208.04V420Z" fill="#FF5960"/>
<path d="M856.777 173.094L862.52 188.352L868.248 173.094H872.719V193H869.273V186.438L869.615 177.66L863.736 193H861.262L855.396 177.674L855.738 186.438V193H852.293V173.094H856.777ZM885.338 193C885.192 192.717 885.064 192.257 884.955 191.619C883.898 192.722 882.604 193.273 881.072 193.273C879.587 193.273 878.374 192.85 877.436 192.002C876.497 191.154 876.027 190.106 876.027 188.857C876.027 187.281 876.611 186.073 877.777 185.234C878.953 184.387 880.63 183.963 882.809 183.963H884.846V182.992C884.846 182.227 884.632 181.616 884.203 181.16C883.775 180.695 883.123 180.463 882.248 180.463C881.492 180.463 880.872 180.654 880.389 181.037C879.906 181.411 879.664 181.889 879.664 182.473H876.342C876.342 181.661 876.611 180.905 877.148 180.203C877.686 179.492 878.415 178.936 879.336 178.535C880.266 178.134 881.3 177.934 882.439 177.934C884.171 177.934 885.552 178.371 886.582 179.246C887.612 180.112 888.141 181.333 888.168 182.91V189.582C888.168 190.913 888.355 191.975 888.729 192.768V193H885.338ZM881.688 190.607C882.344 190.607 882.959 190.448 883.533 190.129C884.117 189.81 884.554 189.382 884.846 188.844V186.055H883.055C881.824 186.055 880.899 186.269 880.279 186.697C879.66 187.126 879.35 187.732 879.35 188.516C879.35 189.154 879.559 189.664 879.979 190.047C880.407 190.421 880.977 190.607 881.688 190.607ZM899.393 181.242C898.955 181.169 898.504 181.133 898.039 181.133C896.517 181.133 895.492 181.716 894.963 182.883V193H891.641V178.207H894.812L894.895 179.861C895.697 178.576 896.809 177.934 898.23 177.934C898.704 177.934 899.096 177.997 899.406 178.125L899.393 181.242ZM907.295 190.621C908.124 190.621 908.812 190.38 909.359 189.896C909.906 189.413 910.198 188.816 910.234 188.105H913.365C913.329 189.026 913.042 189.887 912.504 190.689C911.966 191.482 911.237 192.111 910.316 192.576C909.396 193.041 908.402 193.273 907.336 193.273C905.267 193.273 903.626 192.604 902.414 191.264C901.202 189.924 900.596 188.074 900.596 185.713V185.371C900.596 183.12 901.197 181.32 902.4 179.971C903.604 178.613 905.244 177.934 907.322 177.934C909.081 177.934 910.512 178.449 911.615 179.479C912.727 180.499 913.311 181.844 913.365 183.512H910.234C910.198 182.664 909.906 181.967 909.359 181.42C908.822 180.873 908.133 180.6 907.295 180.6C906.219 180.6 905.39 180.992 904.807 181.775C904.223 182.55 903.927 183.73 903.918 185.316V185.85C903.918 187.454 904.205 188.652 904.779 189.445C905.363 190.229 906.201 190.621 907.295 190.621ZM919.148 179.82C920.233 178.562 921.605 177.934 923.264 177.934C926.417 177.934 928.017 179.734 928.062 183.334V193H924.74V183.457C924.74 182.436 924.517 181.716 924.07 181.297C923.633 180.868 922.986 180.654 922.129 180.654C920.798 180.654 919.805 181.247 919.148 182.432V193H915.826V172H919.148V179.82Z" fill="#FF5960"/>
<path d="M1458.2 188.365H1450.48L1448.87 193H1445.28L1452.79 173.094H1455.9L1463.43 193H1459.82L1458.2 188.365ZM1451.46 185.576H1457.22L1454.34 177.318L1451.46 185.576ZM1477.68 185.754C1477.68 188.042 1477.16 189.869 1476.12 191.236C1475.08 192.594 1473.69 193.273 1471.94 193.273C1470.31 193.273 1469.01 192.74 1468.04 191.674V198.688H1464.72V178.207H1467.78L1467.92 179.711C1468.89 178.526 1470.22 177.934 1471.89 177.934C1473.7 177.934 1475.11 178.608 1476.13 179.957C1477.16 181.297 1477.68 183.161 1477.68 185.549V185.754ZM1474.37 185.467C1474.37 183.99 1474.07 182.819 1473.48 181.953C1472.9 181.087 1472.06 180.654 1470.96 180.654C1469.61 180.654 1468.63 181.215 1468.04 182.336V188.898C1468.64 190.047 1469.62 190.621 1470.99 190.621C1472.05 190.621 1472.87 190.197 1473.47 189.35C1474.07 188.493 1474.37 187.199 1474.37 185.467ZM1488.25 181.242C1487.81 181.169 1487.36 181.133 1486.89 181.133C1485.37 181.133 1484.35 181.716 1483.82 182.883V193H1480.49V178.207H1483.67L1483.75 179.861C1484.55 178.576 1485.66 177.934 1487.08 177.934C1487.56 177.934 1487.95 177.997 1488.26 178.125L1488.25 181.242ZM1493.88 193H1490.56V178.207H1493.88V193ZM1490.35 174.365C1490.35 173.855 1490.51 173.431 1490.83 173.094C1491.16 172.757 1491.62 172.588 1492.22 172.588C1492.83 172.588 1493.29 172.757 1493.62 173.094C1493.95 173.431 1494.11 173.855 1494.11 174.365C1494.11 174.867 1493.95 175.286 1493.62 175.623C1493.29 175.951 1492.83 176.115 1492.22 176.115C1491.62 176.115 1491.16 175.951 1490.83 175.623C1490.51 175.286 1490.35 174.867 1490.35 174.365ZM1501.04 193H1497.72V172H1501.04V193Z" fill="#FF5960"/>
<path d="M196.125 540.172L193.547 542.906V550H189.594V527.25H193.547V537.922L195.734 535.219L202.391 527.25H207.172L198.719 537.328L207.656 550H202.969L196.125 540.172ZM213.453 550H209.656V533.094H213.453V550ZM209.422 528.703C209.422 528.12 209.604 527.635 209.969 527.25C210.344 526.865 210.875 526.672 211.562 526.672C212.25 526.672 212.781 526.865 213.156 527.25C213.531 527.635 213.719 528.12 213.719 528.703C213.719 529.276 213.531 529.755 213.156 530.141C212.781 530.516 212.25 530.703 211.562 530.703C210.875 530.703 210.344 530.516 209.969 530.141C209.604 529.755 209.422 529.276 209.422 528.703ZM224.547 547.281C225.495 547.281 226.281 547.005 226.906 546.453C227.531 545.901 227.865 545.219 227.906 544.406H231.484C231.443 545.458 231.115 546.443 230.5 547.359C229.885 548.266 229.052 548.984 228 549.516C226.948 550.047 225.812 550.312 224.594 550.312C222.229 550.312 220.354 549.547 218.969 548.016C217.583 546.484 216.891 544.37 216.891 541.672V541.281C216.891 538.708 217.578 536.651 218.953 535.109C220.328 533.557 222.203 532.781 224.578 532.781C226.589 532.781 228.224 533.37 229.484 534.547C230.755 535.714 231.422 537.25 231.484 539.156H227.906C227.865 538.188 227.531 537.391 226.906 536.766C226.292 536.141 225.505 535.828 224.547 535.828C223.318 535.828 222.37 536.276 221.703 537.172C221.036 538.057 220.698 539.406 220.688 541.219V541.828C220.688 543.661 221.016 545.031 221.672 545.938C222.339 546.833 223.297 547.281 224.547 547.281ZM239.844 542.75L238.156 544.484V550H234.359V526H238.156V539.844L239.344 538.359L244.016 533.094H248.578L242.297 540.141L249.25 550H244.859L239.844 542.75ZM258.438 541.859H250.234V538.797H258.438V541.859ZM260.859 541.391C260.859 539.734 261.188 538.245 261.844 536.922C262.5 535.589 263.422 534.568 264.609 533.859C265.797 533.141 267.161 532.781 268.703 532.781C270.984 532.781 272.833 533.516 274.25 534.984C275.677 536.453 276.448 538.401 276.562 540.828L276.578 541.719C276.578 543.385 276.255 544.875 275.609 546.188C274.974 547.5 274.057 548.516 272.859 549.234C271.672 549.953 270.297 550.312 268.734 550.312C266.349 550.312 264.438 549.521 263 547.938C261.573 546.344 260.859 544.224 260.859 541.578V541.391ZM264.656 541.719C264.656 543.458 265.016 544.823 265.734 545.812C266.453 546.792 267.453 547.281 268.734 547.281C270.016 547.281 271.01 546.781 271.719 545.781C272.438 544.781 272.797 543.318 272.797 541.391C272.797 539.682 272.427 538.328 271.688 537.328C270.958 536.328 269.964 535.828 268.703 535.828C267.464 535.828 266.479 536.323 265.75 537.312C265.021 538.292 264.656 539.76 264.656 541.719ZM281.125 550V535.906H278.547V533.094H281.125V531.547C281.125 529.672 281.646 528.224 282.688 527.203C283.729 526.182 285.188 525.672 287.062 525.672C287.729 525.672 288.438 525.766 289.188 525.953L289.094 528.922C288.677 528.839 288.193 528.797 287.641 528.797C285.828 528.797 284.922 529.729 284.922 531.594V533.094H288.359V535.906H284.922V550H281.125ZM292.469 550V535.906H289.891V533.094H292.469V531.547C292.469 529.672 292.99 528.224 294.031 527.203C295.073 526.182 296.531 525.672 298.406 525.672C299.073 525.672 299.781 525.766 300.531 525.953L300.438 528.922C300.021 528.839 299.536 528.797 298.984 528.797C297.172 528.797 296.266 529.729 296.266 531.594V533.094H299.703V535.906H296.266V550H292.469ZM315.938 527.25L322.5 544.688L329.047 527.25H334.156V550H330.219V542.5L330.609 532.469L323.891 550H321.062L314.359 532.484L314.75 542.5V550H310.812V527.25H315.938ZM345.922 550.312C343.516 550.312 341.562 549.557 340.062 548.047C338.573 546.526 337.828 544.505 337.828 541.984V541.516C337.828 539.828 338.151 538.323 338.797 537C339.453 535.667 340.37 534.63 341.547 533.891C342.724 533.151 344.036 532.781 345.484 532.781C347.786 532.781 349.562 533.516 350.812 534.984C352.073 536.453 352.703 538.531 352.703 541.219V542.75H341.656C341.771 544.146 342.234 545.25 343.047 546.062C343.87 546.875 344.901 547.281 346.141 547.281C347.88 547.281 349.297 546.578 350.391 545.172L352.438 547.125C351.76 548.135 350.854 548.922 349.719 549.484C348.594 550.036 347.328 550.312 345.922 550.312ZM345.469 535.828C344.427 535.828 343.583 536.193 342.938 536.922C342.302 537.651 341.896 538.667 341.719 539.969H348.953V539.688C348.87 538.417 348.531 537.458 347.938 536.812C347.344 536.156 346.521 535.828 345.469 535.828ZM363.109 550.312C360.703 550.312 358.75 549.557 357.25 548.047C355.76 546.526 355.016 544.505 355.016 541.984V541.516C355.016 539.828 355.339 538.323 355.984 537C356.641 535.667 357.557 534.63 358.734 533.891C359.911 533.151 361.224 532.781 362.672 532.781C364.974 532.781 366.75 533.516 368 534.984C369.26 536.453 369.891 538.531 369.891 541.219V542.75H358.844C358.958 544.146 359.422 545.25 360.234 546.062C361.057 546.875 362.089 547.281 363.328 547.281C365.068 547.281 366.484 546.578 367.578 545.172L369.625 547.125C368.948 548.135 368.042 548.922 366.906 549.484C365.781 550.036 364.516 550.312 363.109 550.312ZM362.656 535.828C361.615 535.828 360.771 536.193 360.125 536.922C359.49 537.651 359.083 538.667 358.906 539.969H366.141V539.688C366.057 538.417 365.719 537.458 365.125 536.812C364.531 536.156 363.708 535.828 362.656 535.828ZM377.609 528.984V533.094H380.594V535.906H377.609V545.344C377.609 545.99 377.734 546.458 377.984 546.75C378.245 547.031 378.703 547.172 379.359 547.172C379.797 547.172 380.24 547.12 380.688 547.016V549.953C379.823 550.193 378.99 550.312 378.188 550.312C375.271 550.312 373.812 548.703 373.812 545.484V535.906H371.031V533.094H373.812V528.984H377.609ZM387.547 550H383.75V533.094H387.547V550ZM383.516 528.703C383.516 528.12 383.698 527.635 384.062 527.25C384.438 526.865 384.969 526.672 385.656 526.672C386.344 526.672 386.875 526.865 387.25 527.25C387.625 527.635 387.812 528.12 387.812 528.703C387.812 529.276 387.625 529.755 387.25 530.141C386.875 530.516 386.344 530.703 385.656 530.703C384.969 530.703 384.438 530.516 384.062 530.141C383.698 529.755 383.516 529.276 383.516 528.703ZM395.219 533.094L395.328 535.047C396.578 533.536 398.219 532.781 400.25 532.781C403.771 532.781 405.562 534.797 405.625 538.828V550H401.828V539.047C401.828 537.974 401.594 537.182 401.125 536.672C400.667 536.151 399.911 535.891 398.859 535.891C397.328 535.891 396.188 536.583 395.438 537.969V550H391.641V533.094H395.219ZM408.844 541.422C408.844 538.797 409.458 536.703 410.688 535.141C411.927 533.568 413.568 532.781 415.609 532.781C417.536 532.781 419.052 533.453 420.156 534.797L420.328 533.094H423.75V549.484C423.75 551.703 423.057 553.453 421.672 554.734C420.297 556.016 418.438 556.656 416.094 556.656C414.854 556.656 413.641 556.396 412.453 555.875C411.276 555.365 410.38 554.693 409.766 553.859L411.562 551.578C412.729 552.964 414.167 553.656 415.875 553.656C417.135 553.656 418.13 553.312 418.859 552.625C419.589 551.948 419.953 550.948 419.953 549.625V548.484C418.859 549.703 417.401 550.312 415.578 550.312C413.599 550.312 411.979 549.526 410.719 547.953C409.469 546.38 408.844 544.203 408.844 541.422ZM412.625 541.75C412.625 543.448 412.969 544.786 413.656 545.766C414.354 546.734 415.318 547.219 416.547 547.219C418.078 547.219 419.214 546.562 419.953 545.25V537.812C419.234 536.531 418.109 535.891 416.578 535.891C415.328 535.891 414.354 536.385 413.656 537.375C412.969 538.365 412.625 539.823 412.625 541.75Z" fill="#2257AE"/>
<path d="M842.172 530.438H835.078V550H831.156V530.438H824.125V527.25H842.172V530.438ZM850.844 550.312C848.438 550.312 846.484 549.557 844.984 548.047C843.495 546.526 842.75 544.505 842.75 541.984V541.516C842.75 539.828 843.073 538.323 843.719 537C844.375 535.667 845.292 534.63 846.469 533.891C847.646 533.151 848.958 532.781 850.406 532.781C852.708 532.781 854.484 533.516 855.734 534.984C856.995 536.453 857.625 538.531 857.625 541.219V542.75H846.578C846.693 544.146 847.156 545.25 847.969 546.062C848.792 546.875 849.823 547.281 851.062 547.281C852.802 547.281 854.219 546.578 855.312 545.172L857.359 547.125C856.682 548.135 855.776 548.922 854.641 549.484C853.516 550.036 852.25 550.312 850.844 550.312ZM850.391 535.828C849.349 535.828 848.505 536.193 847.859 536.922C847.224 537.651 846.818 538.667 846.641 539.969H853.875V539.688C853.792 538.417 853.453 537.458 852.859 536.812C852.266 536.156 851.443 535.828 850.391 535.828ZM870.062 545.406C870.062 544.729 869.781 544.214 869.219 543.859C868.667 543.505 867.745 543.193 866.453 542.922C865.161 542.651 864.083 542.307 863.219 541.891C861.323 540.974 860.375 539.646 860.375 537.906C860.375 536.448 860.99 535.229 862.219 534.25C863.448 533.271 865.01 532.781 866.906 532.781C868.927 532.781 870.557 533.281 871.797 534.281C873.047 535.281 873.672 536.578 873.672 538.172H869.875C869.875 537.443 869.604 536.839 869.062 536.359C868.521 535.87 867.802 535.625 866.906 535.625C866.073 535.625 865.391 535.818 864.859 536.203C864.339 536.589 864.078 537.104 864.078 537.75C864.078 538.333 864.323 538.786 864.812 539.109C865.302 539.432 866.292 539.76 867.781 540.094C869.271 540.417 870.438 540.807 871.281 541.266C872.135 541.714 872.766 542.255 873.172 542.891C873.589 543.526 873.797 544.297 873.797 545.203C873.797 546.724 873.167 547.958 871.906 548.906C870.646 549.844 868.995 550.312 866.953 550.312C865.568 550.312 864.333 550.062 863.25 549.562C862.167 549.062 861.323 548.375 860.719 547.5C860.115 546.625 859.812 545.682 859.812 544.672H863.5C863.552 545.568 863.891 546.26 864.516 546.75C865.141 547.229 865.969 547.469 867 547.469C868 547.469 868.76 547.281 869.281 546.906C869.802 546.521 870.062 546.021 870.062 545.406ZM881.875 528.984V533.094H884.859V535.906H881.875V545.344C881.875 545.99 882 546.458 882.25 546.75C882.51 547.031 882.969 547.172 883.625 547.172C884.062 547.172 884.505 547.12 884.953 547.016V549.953C884.089 550.193 883.255 550.312 882.453 550.312C879.536 550.312 878.078 548.703 878.078 545.484V535.906H875.297V533.094H878.078V528.984H881.875ZM900.062 541.547V550H896.109V527.25H904.812C907.354 527.25 909.37 527.911 910.859 529.234C912.359 530.557 913.109 532.307 913.109 534.484C913.109 536.714 912.375 538.448 910.906 539.688C909.448 540.927 907.401 541.547 904.766 541.547H900.062ZM900.062 538.375H904.812C906.219 538.375 907.292 538.047 908.031 537.391C908.771 536.724 909.141 535.766 909.141 534.516C909.141 533.286 908.766 532.307 908.016 531.578C907.266 530.839 906.234 530.458 904.922 530.438H900.062V538.375ZM920.25 550H916.453V526H920.25V550ZM934.5 550C934.333 549.677 934.188 549.151 934.062 548.422C932.854 549.682 931.375 550.312 929.625 550.312C927.927 550.312 926.542 549.828 925.469 548.859C924.396 547.891 923.859 546.693 923.859 545.266C923.859 543.464 924.526 542.083 925.859 541.125C927.203 540.156 929.12 539.672 931.609 539.672H933.938V538.562C933.938 537.688 933.693 536.99 933.203 536.469C932.714 535.938 931.969 535.672 930.969 535.672C930.104 535.672 929.396 535.891 928.844 536.328C928.292 536.755 928.016 537.302 928.016 537.969H924.219C924.219 537.042 924.526 536.177 925.141 535.375C925.755 534.562 926.589 533.927 927.641 533.469C928.703 533.01 929.885 532.781 931.188 532.781C933.167 532.781 934.745 533.281 935.922 534.281C937.099 535.271 937.703 536.667 937.734 538.469V546.094C937.734 547.615 937.948 548.828 938.375 549.734V550H934.5ZM930.328 547.266C931.078 547.266 931.781 547.083 932.438 546.719C933.104 546.354 933.604 545.865 933.938 545.25V542.062H931.891C930.484 542.062 929.427 542.307 928.719 542.797C928.01 543.286 927.656 543.979 927.656 544.875C927.656 545.604 927.896 546.188 928.375 546.625C928.865 547.052 929.516 547.266 930.328 547.266ZM945.234 533.094L945.344 535.047C946.594 533.536 948.234 532.781 950.266 532.781C953.786 532.781 955.578 534.797 955.641 538.828V550H951.844V539.047C951.844 537.974 951.609 537.182 951.141 536.672C950.682 536.151 949.927 535.891 948.875 535.891C947.344 535.891 946.203 536.583 945.453 537.969V550H941.656V533.094H945.234Z" fill="#2257AE"/>
<path d="M1437.12 541.234H1432.72V550H1428.77V527.25H1436.77C1439.39 527.25 1441.42 527.839 1442.84 529.016C1444.27 530.193 1444.98 531.896 1444.98 534.125C1444.98 535.646 1444.61 536.922 1443.88 537.953C1443.15 538.974 1442.12 539.76 1440.81 540.312L1445.92 549.797V550H1441.69L1437.12 541.234ZM1432.72 538.062H1436.78C1438.11 538.062 1439.16 537.729 1439.91 537.062C1440.66 536.385 1441.03 535.464 1441.03 534.297C1441.03 533.078 1440.68 532.135 1439.98 531.469C1439.3 530.802 1438.27 530.458 1436.89 530.438H1432.72V538.062ZM1455.81 550.312C1453.41 550.312 1451.45 549.557 1449.95 548.047C1448.46 546.526 1447.72 544.505 1447.72 541.984V541.516C1447.72 539.828 1448.04 538.323 1448.69 537C1449.34 535.667 1450.26 534.63 1451.44 533.891C1452.61 533.151 1453.93 532.781 1455.38 532.781C1457.68 532.781 1459.45 533.516 1460.7 534.984C1461.96 536.453 1462.59 538.531 1462.59 541.219V542.75H1451.55C1451.66 544.146 1452.12 545.25 1452.94 546.062C1453.76 546.875 1454.79 547.281 1456.03 547.281C1457.77 547.281 1459.19 546.578 1460.28 545.172L1462.33 547.125C1461.65 548.135 1460.74 548.922 1459.61 549.484C1458.48 550.036 1457.22 550.312 1455.81 550.312ZM1455.36 535.828C1454.32 535.828 1453.47 536.193 1452.83 536.922C1452.19 537.651 1451.79 538.667 1451.61 539.969H1458.84V539.688C1458.76 538.417 1458.42 537.458 1457.83 536.812C1457.23 536.156 1456.41 535.828 1455.36 535.828ZM1480.36 541.719C1480.36 544.333 1479.77 546.422 1478.58 547.984C1477.39 549.536 1475.8 550.312 1473.8 550.312C1471.94 550.312 1470.46 549.703 1469.34 548.484V556.5H1465.55V533.094H1469.05L1469.2 534.812C1470.32 533.458 1471.83 532.781 1473.75 532.781C1475.81 532.781 1477.43 533.552 1478.59 535.094C1479.77 536.625 1480.36 538.755 1480.36 541.484V541.719ZM1476.58 541.391C1476.58 539.703 1476.24 538.365 1475.56 537.375C1474.9 536.385 1473.94 535.891 1472.69 535.891C1471.14 535.891 1470.02 536.531 1469.34 537.812V545.312C1470.03 546.625 1471.16 547.281 1472.72 547.281C1473.93 547.281 1474.87 546.797 1475.55 545.828C1476.23 544.849 1476.58 543.37 1476.58 541.391ZM1482.88 541.391C1482.88 539.734 1483.2 538.245 1483.86 536.922C1484.52 535.589 1485.44 534.568 1486.62 533.859C1487.81 533.141 1489.18 532.781 1490.72 532.781C1493 532.781 1494.85 533.516 1496.27 534.984C1497.69 536.453 1498.46 538.401 1498.58 540.828L1498.59 541.719C1498.59 543.385 1498.27 544.875 1497.62 546.188C1496.99 547.5 1496.07 548.516 1494.88 549.234C1493.69 549.953 1492.31 550.312 1490.75 550.312C1488.36 550.312 1486.45 549.521 1485.02 547.938C1483.59 546.344 1482.88 544.224 1482.88 541.578V541.391ZM1486.67 541.719C1486.67 543.458 1487.03 544.823 1487.75 545.812C1488.47 546.792 1489.47 547.281 1490.75 547.281C1492.03 547.281 1493.03 546.781 1493.73 545.781C1494.45 544.781 1494.81 543.318 1494.81 541.391C1494.81 539.682 1494.44 538.328 1493.7 537.328C1492.97 536.328 1491.98 535.828 1490.72 535.828C1489.48 535.828 1488.49 536.323 1487.77 537.312C1487.04 538.292 1486.67 539.76 1486.67 541.719ZM1510.66 536.562C1510.16 536.479 1509.64 536.438 1509.11 536.438C1507.37 536.438 1506.2 537.104 1505.59 538.438V550H1501.8V533.094H1505.42L1505.52 534.984C1506.43 533.516 1507.7 532.781 1509.33 532.781C1509.87 532.781 1510.32 532.854 1510.67 533L1510.66 536.562ZM1518.59 528.984V533.094H1521.58V535.906H1518.59V545.344C1518.59 545.99 1518.72 546.458 1518.97 546.75C1519.23 547.031 1519.69 547.172 1520.34 547.172C1520.78 547.172 1521.22 547.12 1521.67 547.016V549.953C1520.81 550.193 1519.97 550.312 1519.17 550.312C1516.26 550.312 1514.8 548.703 1514.8 545.484V535.906H1512.02V533.094H1514.8V528.984H1518.59Z" fill="#2257AE"/>
<path d="M476.875 65H472.938V54.8906H462.766V65H458.812V42.25H462.766V51.7188H472.938V42.25H476.875V65ZM488.641 65.3125C486.234 65.3125 484.281 64.5573 482.781 63.0469C481.292 61.526 480.547 59.5052 480.547 56.9844V56.5156C480.547 54.8281 480.87 53.3229 481.516 52C482.172 50.6667 483.089 49.6302 484.266 48.8906C485.443 48.151 486.755 47.7812 488.203 47.7812C490.505 47.7812 492.281 48.5156 493.531 49.9844C494.792 51.4531 495.422 53.5312 495.422 56.2188V57.75H484.375C484.49 59.1458 484.953 60.25 485.766 61.0625C486.589 61.875 487.62 62.2812 488.859 62.2812C490.599 62.2812 492.016 61.5781 493.109 60.1719L495.156 62.125C494.479 63.1354 493.573 63.9219 492.438 64.4844C491.312 65.0365 490.047 65.3125 488.641 65.3125ZM488.188 50.8281C487.146 50.8281 486.302 51.1927 485.656 51.9219C485.021 52.651 484.615 53.6667 484.438 54.9688H491.672V54.6875C491.589 53.4167 491.25 52.4583 490.656 51.8125C490.062 51.1562 489.24 50.8281 488.188 50.8281ZM508.625 63.3438C507.51 64.6562 505.927 65.3125 503.875 65.3125C502.042 65.3125 500.651 64.776 499.703 63.7031C498.766 62.6302 498.297 61.0781 498.297 59.0469V48.0938H502.094V59C502.094 61.1458 502.984 62.2188 504.766 62.2188C506.609 62.2188 507.854 61.5573 508.5 60.2344V48.0938H512.297V65H508.719L508.625 63.3438ZM525.016 51.5625C524.516 51.4792 524 51.4375 523.469 51.4375C521.729 51.4375 520.557 52.1042 519.953 53.4375V65H516.156V48.0938H519.781L519.875 49.9844C520.792 48.5156 522.062 47.7812 523.688 47.7812C524.229 47.7812 524.677 47.8542 525.031 48L525.016 51.5625ZM531.453 65H527.656V48.0938H531.453V65ZM527.422 43.7031C527.422 43.1198 527.604 42.6354 527.969 42.25C528.344 41.8646 528.875 41.6719 529.562 41.6719C530.25 41.6719 530.781 41.8646 531.156 42.25C531.531 42.6354 531.719 43.1198 531.719 43.7031C531.719 44.276 531.531 44.7552 531.156 45.1406C530.781 45.5156 530.25 45.7031 529.562 45.7031C528.875 45.7031 528.344 45.5156 527.969 45.1406C527.604 44.7552 527.422 44.276 527.422 43.7031ZM545.078 60.4062C545.078 59.7292 544.797 59.2135 544.234 58.8594C543.682 58.5052 542.76 58.1927 541.469 57.9219C540.177 57.651 539.099 57.3073 538.234 56.8906C536.339 55.974 535.391 54.6458 535.391 52.9062C535.391 51.4479 536.005 50.2292 537.234 49.25C538.464 48.2708 540.026 47.7812 541.922 47.7812C543.943 47.7812 545.573 48.2812 546.812 49.2812C548.062 50.2812 548.688 51.5781 548.688 53.1719H544.891C544.891 52.4427 544.62 51.8385 544.078 51.3594C543.536 50.8698 542.818 50.625 541.922 50.625C541.089 50.625 540.406 50.8177 539.875 51.2031C539.354 51.5885 539.094 52.1042 539.094 52.75C539.094 53.3333 539.339 53.7865 539.828 54.1094C540.318 54.4323 541.307 54.7604 542.797 55.0938C544.286 55.4167 545.453 55.8073 546.297 56.2656C547.151 56.7135 547.781 57.2552 548.188 57.8906C548.604 58.526 548.812 59.2969 548.812 60.2031C548.812 61.724 548.182 62.9583 546.922 63.9062C545.661 64.8438 544.01 65.3125 541.969 65.3125C540.583 65.3125 539.349 65.0625 538.266 64.5625C537.182 64.0625 536.339 63.375 535.734 62.5C535.13 61.625 534.828 60.6823 534.828 59.6719H538.516C538.568 60.5677 538.906 61.2604 539.531 61.75C540.156 62.2292 540.984 62.4688 542.016 62.4688C543.016 62.4688 543.776 62.2812 544.297 61.9062C544.818 61.5208 545.078 61.0208 545.078 60.4062ZM556.891 43.9844V48.0938H559.875V50.9062H556.891V60.3438C556.891 60.9896 557.016 61.4583 557.266 61.75C557.526 62.0312 557.984 62.1719 558.641 62.1719C559.078 62.1719 559.521 62.1198 559.969 62.0156V64.9531C559.104 65.1927 558.271 65.3125 557.469 65.3125C554.552 65.3125 553.094 63.7031 553.094 60.4844V50.9062H550.312V48.0938H553.094V43.9844H556.891ZM566.828 65H563.031V48.0938H566.828V65ZM562.797 43.7031C562.797 43.1198 562.979 42.6354 563.344 42.25C563.719 41.8646 564.25 41.6719 564.938 41.6719C565.625 41.6719 566.156 41.8646 566.531 42.25C566.906 42.6354 567.094 43.1198 567.094 43.7031C567.094 44.276 566.906 44.7552 566.531 45.1406C566.156 45.5156 565.625 45.7031 564.938 45.7031C564.25 45.7031 563.719 45.5156 563.344 45.1406C562.979 44.7552 562.797 44.276 562.797 43.7031ZM577.922 62.2812C578.87 62.2812 579.656 62.0052 580.281 61.4531C580.906 60.901 581.24 60.2188 581.281 59.4062H584.859C584.818 60.4583 584.49 61.4427 583.875 62.3594C583.26 63.2656 582.427 63.9844 581.375 64.5156C580.323 65.0469 579.188 65.3125 577.969 65.3125C575.604 65.3125 573.729 64.5469 572.344 63.0156C570.958 61.4844 570.266 59.3698 570.266 56.6719V56.2812C570.266 53.7083 570.953 51.651 572.328 50.1094C573.703 48.5573 575.578 47.7812 577.953 47.7812C579.964 47.7812 581.599 48.3698 582.859 49.5469C584.13 50.7135 584.797 52.25 584.859 54.1562H581.281C581.24 53.1875 580.906 52.3906 580.281 51.7656C579.667 51.1406 578.88 50.8281 577.922 50.8281C576.693 50.8281 575.745 51.276 575.078 52.1719C574.411 53.0573 574.073 54.4062 574.062 56.2188V56.8281C574.062 58.6615 574.391 60.0312 575.047 60.9375C575.714 61.8333 576.672 62.2812 577.922 62.2812ZM609.359 54.8438H600.016V61.8438H610.938V65H596.062V42.25H610.828V45.4375H600.016V51.7188H609.359V54.8438ZM619.344 60.1875L622.922 48.0938H626.844L620.984 65H617.688L611.781 48.0938H615.719L619.344 60.1875ZM639.078 65C638.911 64.6771 638.766 64.151 638.641 63.4219C637.432 64.6823 635.953 65.3125 634.203 65.3125C632.505 65.3125 631.12 64.8281 630.047 63.8594C628.974 62.8906 628.438 61.6927 628.438 60.2656C628.438 58.4635 629.104 57.0833 630.438 56.125C631.781 55.1562 633.698 54.6719 636.188 54.6719H638.516V53.5625C638.516 52.6875 638.271 51.9896 637.781 51.4688C637.292 50.9375 636.547 50.6719 635.547 50.6719C634.682 50.6719 633.974 50.8906 633.422 51.3281C632.87 51.7552 632.594 52.3021 632.594 52.9688H628.797C628.797 52.0417 629.104 51.1771 629.719 50.375C630.333 49.5625 631.167 48.9271 632.219 48.4688C633.281 48.0104 634.464 47.7812 635.766 47.7812C637.745 47.7812 639.323 48.2812 640.5 49.2812C641.677 50.2708 642.281 51.6667 642.312 53.4688V61.0938C642.312 62.6146 642.526 63.8281 642.953 64.7344V65H639.078ZM634.906 62.2656C635.656 62.2656 636.359 62.0833 637.016 61.7188C637.682 61.3542 638.182 60.8646 638.516 60.25V57.0625H636.469C635.062 57.0625 634.005 57.3073 633.297 57.7969C632.589 58.2865 632.234 58.9792 632.234 59.875C632.234 60.6042 632.474 61.1875 632.953 61.625C633.443 62.0521 634.094 62.2656 634.906 62.2656ZM650.328 65H646.531V41H650.328V65ZM664.719 63.3438C663.604 64.6562 662.021 65.3125 659.969 65.3125C658.135 65.3125 656.745 64.776 655.797 63.7031C654.859 62.6302 654.391 61.0781 654.391 59.0469V48.0938H658.188V59C658.188 61.1458 659.078 62.2188 660.859 62.2188C662.703 62.2188 663.948 61.5573 664.594 60.2344V48.0938H668.391V65H664.812L664.719 63.3438ZM682.359 65C682.193 64.6771 682.047 64.151 681.922 63.4219C680.714 64.6823 679.234 65.3125 677.484 65.3125C675.786 65.3125 674.401 64.8281 673.328 63.8594C672.255 62.8906 671.719 61.6927 671.719 60.2656C671.719 58.4635 672.385 57.0833 673.719 56.125C675.062 55.1562 676.979 54.6719 679.469 54.6719H681.797V53.5625C681.797 52.6875 681.552 51.9896 681.062 51.4688C680.573 50.9375 679.828 50.6719 678.828 50.6719C677.964 50.6719 677.255 50.8906 676.703 51.3281C676.151 51.7552 675.875 52.3021 675.875 52.9688H672.078C672.078 52.0417 672.385 51.1771 673 50.375C673.615 49.5625 674.448 48.9271 675.5 48.4688C676.562 48.0104 677.745 47.7812 679.047 47.7812C681.026 47.7812 682.604 48.2812 683.781 49.2812C684.958 50.2708 685.562 51.6667 685.594 53.4688V61.0938C685.594 62.6146 685.807 63.8281 686.234 64.7344V65H682.359ZM678.188 62.2656C678.938 62.2656 679.641 62.0833 680.297 61.7188C680.964 61.3542 681.464 60.8646 681.797 60.25V57.0625H679.75C678.344 57.0625 677.286 57.3073 676.578 57.7969C675.87 58.2865 675.516 58.9792 675.516 59.875C675.516 60.6042 675.755 61.1875 676.234 61.625C676.724 62.0521 677.375 62.2656 678.188 62.2656ZM694.328 43.9844V48.0938H697.312V50.9062H694.328V60.3438C694.328 60.9896 694.453 61.4583 694.703 61.75C694.964 62.0312 695.422 62.1719 696.078 62.1719C696.516 62.1719 696.958 62.1198 697.406 62.0156V64.9531C696.542 65.1927 695.708 65.3125 694.906 65.3125C691.99 65.3125 690.531 63.7031 690.531 60.4844V50.9062H687.75V48.0938H690.531V43.9844H694.328ZM704.266 65H700.469V48.0938H704.266V65ZM700.234 43.7031C700.234 43.1198 700.417 42.6354 700.781 42.25C701.156 41.8646 701.688 41.6719 702.375 41.6719C703.062 41.6719 703.594 41.8646 703.969 42.25C704.344 42.6354 704.531 43.1198 704.531 43.7031C704.531 44.276 704.344 44.7552 703.969 45.1406C703.594 45.5156 703.062 45.7031 702.375 45.7031C701.688 45.7031 701.156 45.5156 700.781 45.1406C700.417 44.7552 700.234 44.276 700.234 43.7031ZM707.703 56.3906C707.703 54.7344 708.031 53.2448 708.688 51.9219C709.344 50.5885 710.266 49.5677 711.453 48.8594C712.641 48.1406 714.005 47.7812 715.547 47.7812C717.828 47.7812 719.677 48.5156 721.094 49.9844C722.521 51.4531 723.292 53.401 723.406 55.8281L723.422 56.7188C723.422 58.3854 723.099 59.875 722.453 61.1875C721.818 62.5 720.901 63.5156 719.703 64.2344C718.516 64.9531 717.141 65.3125 715.578 65.3125C713.193 65.3125 711.281 64.5208 709.844 62.9375C708.417 61.3438 707.703 59.224 707.703 56.5781V56.3906ZM711.5 56.7188C711.5 58.4583 711.859 59.8229 712.578 60.8125C713.297 61.7917 714.297 62.2812 715.578 62.2812C716.859 62.2812 717.854 61.7812 718.562 60.7812C719.281 59.7812 719.641 58.3177 719.641 56.3906C719.641 54.6823 719.271 53.3281 718.531 52.3281C717.802 51.3281 716.807 50.8281 715.547 50.8281C714.307 50.8281 713.323 51.3229 712.594 52.3125C711.865 53.2917 711.5 54.7604 711.5 56.7188ZM730.156 48.0938L730.266 50.0469C731.516 48.5365 733.156 47.7812 735.188 47.7812C738.708 47.7812 740.5 49.7969 740.562 53.8281V65H736.766V54.0469C736.766 52.974 736.531 52.1823 736.062 51.6719C735.604 51.151 734.849 50.8906 733.797 50.8906C732.266 50.8906 731.125 51.5833 730.375 52.9688V65H726.578V48.0938H730.156Z" fill="#2257AE"/>
<path d="M1102.95 42.25V57.4531C1102.95 59.8698 1102.18 61.7865 1100.62 63.2031C1099.08 64.6094 1097.03 65.3125 1094.45 65.3125C1091.85 65.3125 1089.78 64.6198 1088.25 63.2344C1086.72 61.8385 1085.95 59.9062 1085.95 57.4375V42.25H1089.89V57.4688C1089.89 58.9896 1090.28 60.151 1091.05 60.9531C1091.82 61.7552 1092.95 62.1562 1094.45 62.1562C1097.49 62.1562 1099.02 60.5521 1099.02 57.3438V42.25H1102.95ZM1116.3 60.4062C1116.3 59.7292 1116.02 59.2135 1115.45 58.8594C1114.9 58.5052 1113.98 58.1927 1112.69 57.9219C1111.4 57.651 1110.32 57.3073 1109.45 56.8906C1107.56 55.974 1106.61 54.6458 1106.61 52.9062C1106.61 51.4479 1107.22 50.2292 1108.45 49.25C1109.68 48.2708 1111.24 47.7812 1113.14 47.7812C1115.16 47.7812 1116.79 48.2812 1118.03 49.2812C1119.28 50.2812 1119.91 51.5781 1119.91 53.1719H1116.11C1116.11 52.4427 1115.84 51.8385 1115.3 51.3594C1114.76 50.8698 1114.04 50.625 1113.14 50.625C1112.31 50.625 1111.62 50.8177 1111.09 51.2031C1110.57 51.5885 1110.31 52.1042 1110.31 52.75C1110.31 53.3333 1110.56 53.7865 1111.05 54.1094C1111.54 54.4323 1112.53 54.7604 1114.02 55.0938C1115.51 55.4167 1116.67 55.8073 1117.52 56.2656C1118.37 56.7135 1119 57.2552 1119.41 57.8906C1119.82 58.526 1120.03 59.2969 1120.03 60.2031C1120.03 61.724 1119.4 62.9583 1118.14 63.9062C1116.88 64.8438 1115.23 65.3125 1113.19 65.3125C1111.8 65.3125 1110.57 65.0625 1109.48 64.5625C1108.4 64.0625 1107.56 63.375 1106.95 62.5C1106.35 61.625 1106.05 60.6823 1106.05 59.6719H1109.73C1109.79 60.5677 1110.12 61.2604 1110.75 61.75C1111.38 62.2292 1112.2 62.4688 1113.23 62.4688C1114.23 62.4688 1114.99 62.2812 1115.52 61.9062C1116.04 61.5208 1116.3 61.0208 1116.3 60.4062ZM1133.45 65C1133.29 64.6771 1133.14 64.151 1133.02 63.4219C1131.81 64.6823 1130.33 65.3125 1128.58 65.3125C1126.88 65.3125 1125.49 64.8281 1124.42 63.8594C1123.35 62.8906 1122.81 61.6927 1122.81 60.2656C1122.81 58.4635 1123.48 57.0833 1124.81 56.125C1126.16 55.1562 1128.07 54.6719 1130.56 54.6719H1132.89V53.5625C1132.89 52.6875 1132.65 51.9896 1132.16 51.4688C1131.67 50.9375 1130.92 50.6719 1129.92 50.6719C1129.06 50.6719 1128.35 50.8906 1127.8 51.3281C1127.24 51.7552 1126.97 52.3021 1126.97 52.9688H1123.17C1123.17 52.0417 1123.48 51.1771 1124.09 50.375C1124.71 49.5625 1125.54 48.9271 1126.59 48.4688C1127.66 48.0104 1128.84 47.7812 1130.14 47.7812C1132.12 47.7812 1133.7 48.2812 1134.88 49.2812C1136.05 50.2708 1136.66 51.6667 1136.69 53.4688V61.0938C1136.69 62.6146 1136.9 63.8281 1137.33 64.7344V65H1133.45ZM1129.28 62.2656C1130.03 62.2656 1130.73 62.0833 1131.39 61.7188C1132.06 61.3542 1132.56 60.8646 1132.89 60.25V57.0625H1130.84C1129.44 57.0625 1128.38 57.3073 1127.67 57.7969C1126.96 58.2865 1126.61 58.9792 1126.61 59.875C1126.61 60.6042 1126.85 61.1875 1127.33 61.625C1127.82 62.0521 1128.47 62.2656 1129.28 62.2656ZM1155.5 56.7188C1155.5 59.3438 1154.91 61.4323 1153.73 62.9844C1152.57 64.5365 1150.96 65.3125 1148.91 65.3125C1146.93 65.3125 1145.39 64.599 1144.28 63.1719L1144.09 65H1140.66V41H1144.45V49.7188C1145.55 48.4271 1147.02 47.7812 1148.88 47.7812C1150.94 47.7812 1152.56 48.5469 1153.73 50.0781C1154.91 51.6094 1155.5 53.75 1155.5 56.5V56.7188ZM1151.7 56.3906C1151.7 54.5573 1151.38 53.1823 1150.73 52.2656C1150.09 51.349 1149.15 50.8906 1147.92 50.8906C1146.28 50.8906 1145.12 51.6094 1144.45 53.0469V60.0156C1145.13 61.4844 1146.3 62.2188 1147.95 62.2188C1149.14 62.2188 1150.06 61.776 1150.7 60.8906C1151.35 60.0052 1151.68 58.6667 1151.7 56.875V56.3906ZM1162.73 65H1158.94V48.0938H1162.73V65ZM1158.7 43.7031C1158.7 43.1198 1158.89 42.6354 1159.25 42.25C1159.62 41.8646 1160.16 41.6719 1160.84 41.6719C1161.53 41.6719 1162.06 41.8646 1162.44 42.25C1162.81 42.6354 1163 43.1198 1163 43.7031C1163 44.276 1162.81 44.7552 1162.44 45.1406C1162.06 45.5156 1161.53 45.7031 1160.84 45.7031C1160.16 45.7031 1159.62 45.5156 1159.25 45.1406C1158.89 44.7552 1158.7 44.276 1158.7 43.7031ZM1170.92 65H1167.12V41H1170.92V65ZM1179.11 65H1175.31V48.0938H1179.11V65ZM1175.08 43.7031C1175.08 43.1198 1175.26 42.6354 1175.62 42.25C1176 41.8646 1176.53 41.6719 1177.22 41.6719C1177.91 41.6719 1178.44 41.8646 1178.81 42.25C1179.19 42.6354 1179.38 43.1198 1179.38 43.7031C1179.38 44.276 1179.19 44.7552 1178.81 45.1406C1178.44 45.5156 1177.91 45.7031 1177.22 45.7031C1176.53 45.7031 1176 45.5156 1175.62 45.1406C1175.26 44.7552 1175.08 44.276 1175.08 43.7031ZM1188.02 43.9844V48.0938H1191V50.9062H1188.02V60.3438C1188.02 60.9896 1188.14 61.4583 1188.39 61.75C1188.65 62.0312 1189.11 62.1719 1189.77 62.1719C1190.2 62.1719 1190.65 62.1198 1191.09 62.0156V64.9531C1190.23 65.1927 1189.4 65.3125 1188.59 65.3125C1185.68 65.3125 1184.22 63.7031 1184.22 60.4844V50.9062H1181.44V48.0938H1184.22V43.9844H1188.02ZM1199.83 59.5625L1203.27 48.0938H1207.31L1200.59 67.5625C1199.56 70.4062 1197.81 71.8281 1195.34 71.8281C1194.79 71.8281 1194.18 71.7344 1193.52 71.5469V68.6094L1194.23 68.6562C1195.19 68.6562 1195.91 68.4792 1196.39 68.125C1196.88 67.7812 1197.27 67.1979 1197.55 66.375L1198.09 64.9219L1192.16 48.0938H1196.25L1199.83 59.5625ZM1233.34 45.4375H1226.25V65H1222.33V45.4375H1215.3V42.25H1233.34V45.4375ZM1242.02 65.3125C1239.61 65.3125 1237.66 64.5573 1236.16 63.0469C1234.67 61.526 1233.92 59.5052 1233.92 56.9844V56.5156C1233.92 54.8281 1234.24 53.3229 1234.89 52C1235.55 50.6667 1236.46 49.6302 1237.64 48.8906C1238.82 48.151 1240.13 47.7812 1241.58 47.7812C1243.88 47.7812 1245.66 48.5156 1246.91 49.9844C1248.17 51.4531 1248.8 53.5312 1248.8 56.2188V57.75H1237.75C1237.86 59.1458 1238.33 60.25 1239.14 61.0625C1239.96 61.875 1240.99 62.2812 1242.23 62.2812C1243.97 62.2812 1245.39 61.5781 1246.48 60.1719L1248.53 62.125C1247.85 63.1354 1246.95 63.9219 1245.81 64.4844C1244.69 65.0365 1243.42 65.3125 1242.02 65.3125ZM1241.56 50.8281C1240.52 50.8281 1239.68 51.1927 1239.03 51.9219C1238.4 52.651 1237.99 53.6667 1237.81 54.9688H1245.05V54.6875C1244.96 53.4167 1244.62 52.4583 1244.03 51.8125C1243.44 51.1562 1242.61 50.8281 1241.56 50.8281ZM1261.23 60.4062C1261.23 59.7292 1260.95 59.2135 1260.39 58.8594C1259.84 58.5052 1258.92 58.1927 1257.62 57.9219C1256.33 57.651 1255.26 57.3073 1254.39 56.8906C1252.49 55.974 1251.55 54.6458 1251.55 52.9062C1251.55 51.4479 1252.16 50.2292 1253.39 49.25C1254.62 48.2708 1256.18 47.7812 1258.08 47.7812C1260.1 47.7812 1261.73 48.2812 1262.97 49.2812C1264.22 50.2812 1264.84 51.5781 1264.84 53.1719H1261.05C1261.05 52.4427 1260.78 51.8385 1260.23 51.3594C1259.69 50.8698 1258.97 50.625 1258.08 50.625C1257.24 50.625 1256.56 50.8177 1256.03 51.2031C1255.51 51.5885 1255.25 52.1042 1255.25 52.75C1255.25 53.3333 1255.49 53.7865 1255.98 54.1094C1256.47 54.4323 1257.46 54.7604 1258.95 55.0938C1260.44 55.4167 1261.61 55.8073 1262.45 56.2656C1263.31 56.7135 1263.94 57.2552 1264.34 57.8906C1264.76 58.526 1264.97 59.2969 1264.97 60.2031C1264.97 61.724 1264.34 62.9583 1263.08 63.9062C1261.82 64.8438 1260.17 65.3125 1258.12 65.3125C1256.74 65.3125 1255.51 65.0625 1254.42 64.5625C1253.34 64.0625 1252.49 63.375 1251.89 62.5C1251.29 61.625 1250.98 60.6823 1250.98 59.6719H1254.67C1254.72 60.5677 1255.06 61.2604 1255.69 61.75C1256.31 62.2292 1257.14 62.4688 1258.17 62.4688C1259.17 62.4688 1259.93 62.2812 1260.45 61.9062C1260.97 61.5208 1261.23 61.0208 1261.23 60.4062ZM1273.05 43.9844V48.0938H1276.03V50.9062H1273.05V60.3438C1273.05 60.9896 1273.17 61.4583 1273.42 61.75C1273.68 62.0312 1274.14 62.1719 1274.8 62.1719C1275.23 62.1719 1275.68 62.1198 1276.12 62.0156V64.9531C1275.26 65.1927 1274.43 65.3125 1273.62 65.3125C1270.71 65.3125 1269.25 63.7031 1269.25 60.4844V50.9062H1266.47V48.0938H1269.25V43.9844H1273.05Z" fill="#2257AE"/>
<path d="M1490.61 321.31H1448.91C1448.23 321.31 1447.69 320.77 1447.69 320.094V269.442C1447.69 268.767 1448.23 268.226 1448.91 268.226H1490.61C1491.28 268.226 1491.83 268.767 1491.83 269.442V294.768C1491.83 295.444 1491.28 295.984 1490.61 295.984C1489.93 295.984 1489.39 295.444 1489.39 294.768V270.725H1450.19V318.879H1489.39V315.029C1489.39 314.354 1489.93 313.813 1490.61 313.813C1491.28 313.813 1491.83 314.354 1491.83 315.029V320.094C1491.83 320.77 1491.28 321.31 1490.61 321.31Z" fill="#2257AE"/>
<path d="M1486.01 311.517C1485.67 311.517 1485.4 311.382 1485.13 311.18C1484.73 310.774 1484.66 310.234 1484.86 309.761L1487.57 304.561C1487.63 304.426 1487.7 304.358 1487.77 304.223L1507.3 284.435C1507.78 283.962 1508.52 283.962 1509.06 284.435L1511.49 286.799C1511.76 287.002 1511.9 287.339 1511.9 287.677C1511.9 288.015 1511.76 288.352 1511.56 288.555L1491.96 308.343C1491.89 308.411 1491.76 308.478 1491.69 308.546L1486.55 311.382C1486.42 311.517 1486.22 311.517 1486.01 311.517ZM1489.66 305.844L1488.92 307.263L1490.34 306.452L1508.86 287.677L1508.18 287.002L1489.66 305.844Z" fill="#2257AE"/>
<path d="M1484.59 281.869H1454.92C1454.38 281.869 1453.98 281.464 1453.98 280.923V275.993C1453.98 275.453 1454.38 275.048 1454.92 275.048H1484.59C1485.13 275.048 1485.54 275.453 1485.54 275.993V280.923C1485.54 281.464 1485.13 281.869 1484.59 281.869ZM1455.87 280.045H1483.65V276.939H1455.87V280.045Z" fill="#2257AE"/>
<path d="M1484.59 292.877H1454.92C1454.38 292.877 1453.98 292.472 1453.98 291.932V287.001C1453.98 286.461 1454.38 286.056 1454.92 286.056H1484.59C1485.13 286.056 1485.54 286.461 1485.54 287.001V291.932C1485.54 292.472 1485.13 292.877 1484.59 292.877ZM1455.87 291.054H1483.65V287.947H1455.87V291.054Z" fill="#2257AE"/>
<path d="M1484.66 303.886H1454.99C1454.45 303.886 1454.04 303.48 1454.04 302.94V298.01C1454.04 297.47 1454.45 297.064 1454.99 297.064H1484.66C1485.2 297.064 1485.61 297.47 1485.61 298.01V302.94C1485.61 303.48 1485.13 303.886 1484.66 303.886ZM1455.94 302.062H1483.71V298.955H1455.94V302.062Z" fill="#2257AE"/>
<path d="M1461.34 315.232H1455.8C1455.26 315.232 1454.85 314.826 1454.85 314.286V308.748C1454.85 308.208 1455.26 307.803 1455.8 307.803H1461.34C1461.88 307.803 1462.29 308.208 1462.29 308.748V314.286C1462.22 314.826 1461.82 315.232 1461.34 315.232ZM1456.68 313.408H1460.4V309.694H1456.68V313.408Z" fill="#2257AE"/>
<path d="M1472.22 315.232H1466.68C1466.14 315.232 1465.74 314.826 1465.74 314.286V308.748C1465.74 308.208 1466.14 307.803 1466.68 307.803H1472.22C1472.77 307.803 1473.17 308.208 1473.17 308.748V314.286C1473.17 314.826 1472.7 315.232 1472.22 315.232ZM1467.56 313.408H1471.28V309.694H1467.56V313.408Z" fill="#2257AE"/>
<path d="M1482.5 315.232H1478.24C1477.7 315.232 1477.29 314.826 1477.29 314.286V308.748C1477.29 308.208 1477.7 307.803 1478.24 307.803H1482.43C1482.97 307.803 1483.38 308.208 1483.38 308.748C1483.38 309.288 1482.97 309.694 1482.43 309.694H1479.12V313.408H1482.5C1483.04 313.408 1483.44 313.813 1483.44 314.354C1483.44 314.894 1482.97 315.232 1482.5 315.232Z" fill="#2257AE"/>
<g clip-path="url(#clip0)">
<path d="M1203.13 284.45C1201.27 284.45 1199.44 284.998 1197.89 286.026C1196.34 287.053 1195.13 288.513 1194.42 290.222C1193.71 291.93 1193.52 293.81 1193.88 295.624C1194.25 297.438 1195.15 299.104 1196.47 300.411C1197.78 301.719 1199.46 302.61 1201.29 302.97C1203.12 303.331 1205.02 303.146 1206.74 302.438C1208.46 301.731 1209.94 300.532 1210.97 298.995C1212.01 297.457 1212.56 295.649 1212.56 293.8C1212.56 291.321 1211.57 288.945 1209.8 287.192C1208.03 285.439 1205.63 284.453 1203.13 284.45V284.45ZM1203.13 300.95C1201.71 300.95 1200.31 300.531 1199.13 299.745C1197.94 298.959 1197.02 297.843 1196.47 296.536C1195.92 295.23 1195.78 293.792 1196.06 292.405C1196.34 291.018 1197.03 289.744 1198.03 288.744C1199.04 287.744 1200.33 287.063 1201.73 286.787C1203.12 286.512 1204.57 286.653 1205.89 287.194C1207.21 287.735 1208.34 288.652 1209.13 289.828C1209.92 291.003 1210.34 292.386 1210.34 293.8C1210.34 295.696 1209.58 297.515 1208.23 298.856C1206.88 300.197 1205.05 300.95 1203.13 300.95V300.95Z" fill="#2257AE"/>
<path d="M1199.59 296.309C1199.38 296.511 1199.26 296.789 1199.25 297.08C1199.25 297.372 1199.36 297.653 1199.56 297.863C1199.77 298.073 1200.05 298.193 1200.34 298.199C1200.63 298.204 1200.92 298.094 1201.13 297.891C1201.67 297.382 1202.39 297.098 1203.13 297.098C1203.88 297.098 1204.6 297.382 1205.14 297.891C1205.35 298.094 1205.63 298.204 1205.93 298.199C1206.22 298.193 1206.5 298.073 1206.7 297.863C1206.91 297.653 1207.02 297.372 1207.01 297.08C1207.01 296.789 1206.89 296.511 1206.68 296.309C1205.72 295.408 1204.45 294.906 1203.13 294.906C1201.81 294.906 1200.54 295.408 1199.59 296.309V296.309Z" fill="#2257AE"/>
<path d="M1169.3 293.8C1169.3 291.951 1168.74 290.143 1167.71 288.605C1166.67 287.068 1165.2 285.869 1163.48 285.162C1161.75 284.454 1159.86 284.269 1158.03 284.63C1156.2 284.99 1154.52 285.881 1153.2 287.189C1151.88 288.496 1150.98 290.162 1150.62 291.976C1150.25 293.79 1150.44 295.67 1151.16 297.378C1151.87 299.087 1153.08 300.547 1154.63 301.574C1156.18 302.602 1158 303.15 1159.87 303.15C1162.37 303.147 1164.76 302.161 1166.53 300.408C1168.3 298.656 1169.29 296.279 1169.3 293.8V293.8ZM1152.66 293.8C1152.66 292.386 1153.08 291.003 1153.87 289.828C1154.66 288.652 1155.79 287.735 1157.11 287.194C1158.43 286.653 1159.88 286.512 1161.27 286.787C1162.67 287.063 1163.96 287.744 1164.97 288.744C1165.97 289.744 1166.66 291.018 1166.94 292.405C1167.22 293.792 1167.08 295.23 1166.53 296.536C1165.98 297.843 1165.06 298.959 1163.87 299.745C1162.69 300.531 1161.29 300.95 1159.87 300.95C1157.95 300.95 1156.12 300.197 1154.77 298.856C1153.42 297.515 1152.66 295.696 1152.66 293.8V293.8Z" fill="#2257AE"/>
<path d="M1172.07 293.8C1172.07 295.649 1172.62 297.457 1173.66 298.995C1174.7 300.532 1176.17 301.731 1177.89 302.438C1179.61 303.146 1181.51 303.331 1183.34 302.97C1185.17 302.61 1186.85 301.719 1188.17 300.411C1189.49 299.104 1190.38 297.438 1190.75 295.624C1191.11 293.81 1190.93 291.93 1190.21 290.222C1189.5 288.513 1188.29 287.053 1186.74 286.026C1185.19 284.998 1183.37 284.45 1181.5 284.45C1179 284.453 1176.6 285.439 1174.84 287.192C1173.07 288.945 1172.07 291.321 1172.07 293.8ZM1188.71 293.8C1188.71 295.214 1188.29 296.597 1187.5 297.772C1186.7 298.948 1185.58 299.865 1184.26 300.406C1182.94 300.947 1181.49 301.089 1180.09 300.813C1178.69 300.537 1177.41 299.856 1176.4 298.856C1175.39 297.856 1174.71 296.582 1174.43 295.195C1174.15 293.808 1174.29 292.37 1174.84 291.064C1175.38 289.757 1176.31 288.641 1177.49 287.855C1178.68 287.069 1180.07 286.65 1181.5 286.65C1183.41 286.65 1185.25 287.403 1186.6 288.744C1187.95 290.085 1188.71 291.904 1188.71 293.8Z" fill="#2257AE"/>
<path d="M1163.41 297.341C1163.62 297.139 1163.74 296.861 1163.75 296.569C1163.75 296.278 1163.64 295.996 1163.44 295.786C1163.23 295.576 1162.95 295.455 1162.66 295.45C1162.37 295.445 1162.08 295.556 1161.87 295.759C1161.33 296.268 1160.61 296.552 1159.87 296.552C1159.12 296.552 1158.4 296.268 1157.86 295.759C1157.76 295.658 1157.64 295.58 1157.5 295.527C1157.36 295.474 1157.22 295.448 1157.07 295.45C1156.93 295.453 1156.79 295.484 1156.65 295.541C1156.52 295.599 1156.4 295.682 1156.3 295.786C1156.19 295.89 1156.12 296.013 1156.06 296.147C1156.01 296.281 1155.98 296.425 1155.98 296.569C1155.99 296.714 1156.02 296.856 1156.08 296.989C1156.13 297.121 1156.22 297.241 1156.32 297.341C1157.28 298.242 1158.55 298.745 1159.87 298.745C1161.19 298.745 1162.45 298.242 1163.41 297.341V297.341Z" fill="#2257AE"/>
<path d="M1177.62 297.1C1177.62 297.392 1177.73 297.672 1177.94 297.878C1178.15 298.084 1178.43 298.2 1178.73 298.2H1184.27C1184.57 298.2 1184.85 298.084 1185.06 297.878C1185.27 297.672 1185.38 297.392 1185.38 297.1C1185.38 296.808 1185.27 296.528 1185.06 296.322C1184.85 296.116 1184.57 296 1184.27 296H1178.73C1178.43 296 1178.15 296.116 1177.94 296.322C1177.73 296.528 1177.62 296.808 1177.62 297.1Z" fill="#2257AE"/>
<path d="M1212.56 272.9H1150.44C1149.26 272.901 1148.13 273.365 1147.3 274.19C1146.47 275.015 1146 276.133 1146 277.3V310.3C1146 311.466 1146.47 312.585 1147.3 313.41C1148.13 314.235 1149.26 314.699 1150.44 314.7H1172.08L1179.9 322.819C1180.1 323.034 1180.35 323.205 1180.63 323.323C1180.9 323.44 1181.2 323.5 1181.5 323.5C1181.8 323.5 1182.1 323.44 1182.37 323.323C1182.65 323.205 1182.9 323.034 1183.1 322.819L1190.92 314.7H1212.56C1213.74 314.699 1214.87 314.235 1215.7 313.41C1216.53 312.585 1217 311.466 1217 310.3V277.3C1217 276.133 1216.53 275.015 1215.7 274.19C1214.87 273.365 1213.74 272.901 1212.56 272.9V272.9ZM1214.78 310.3C1214.78 310.883 1214.55 311.443 1214.13 311.856C1213.72 312.268 1213.15 312.5 1212.56 312.5H1189.97L1181.5 321.3L1173.03 312.5H1150.44C1149.85 312.5 1149.28 312.268 1148.87 311.856C1148.45 311.443 1148.22 310.883 1148.22 310.3V277.3C1148.22 276.716 1148.45 276.157 1148.87 275.744C1149.28 275.332 1149.85 275.1 1150.44 275.1H1212.56C1213.15 275.1 1213.72 275.332 1214.13 275.744C1214.55 276.157 1214.78 276.716 1214.78 277.3V310.3Z" fill="#2257AE"/>
<path d="M1154.87 282.25H1208.12C1208.42 282.25 1208.7 282.134 1208.91 281.928C1209.12 281.722 1209.23 281.442 1209.23 281.15C1209.23 280.858 1209.12 280.578 1208.91 280.372C1208.7 280.166 1208.42 280.05 1208.12 280.05H1154.87C1154.58 280.05 1154.3 280.166 1154.09 280.372C1153.88 280.578 1153.77 280.858 1153.77 281.15C1153.77 281.442 1153.88 281.722 1154.09 281.928C1154.3 282.134 1154.58 282.25 1154.87 282.25Z" fill="#2257AE"/>
<path d="M1208.12 305.35H1154.87C1154.58 305.35 1154.3 305.466 1154.09 305.672C1153.88 305.879 1153.77 306.158 1153.77 306.45C1153.77 306.742 1153.88 307.022 1154.09 307.228C1154.3 307.434 1154.58 307.55 1154.87 307.55H1208.12C1208.42 307.55 1208.7 307.434 1208.91 307.228C1209.12 307.022 1209.23 306.742 1209.23 306.45C1209.23 306.158 1209.12 305.879 1208.91 305.672C1208.7 305.466 1208.42 305.35 1208.12 305.35Z" fill="#2257AE"/>
</g>
<path d="M912.427 267H867.273C863.814 267 861 269.822 861 273.291V318.588C861 322.057 863.814 324.88 867.273 324.88H912.427C915.886 324.88 918.7 322.057 918.7 318.588V273.291C918.7 269.822 915.886 267 912.427 267ZM916.468 318.588C916.468 320.823 914.656 322.641 912.427 322.641H867.273C865.044 322.641 863.232 320.823 863.232 318.588V273.291C863.232 271.057 865.044 269.238 867.273 269.238H912.427C914.656 269.238 916.468 271.057 916.468 273.291V318.588Z" fill="#2257AE"/>
<path d="M911.128 284.34H886.655C886.413 284.34 886.217 284.536 886.217 284.778V286.819C886.217 287.061 886.413 287.258 886.655 287.258H911.128C911.37 287.258 911.566 287.061 911.566 286.819V284.778C911.566 284.536 911.37 284.34 911.128 284.34Z" fill="#2257AE"/>
<path d="M880.149 276.398L878.844 275.09C878.623 274.869 878.266 274.869 878.045 275.09L874.283 278.863L870.52 275.09C870.3 274.869 869.942 274.869 869.721 275.09L868.417 276.398C868.196 276.62 868.196 276.979 868.417 277.2L872.179 280.973L868.417 284.747C868.196 284.968 868.196 285.327 868.417 285.549L869.721 286.857C869.942 287.078 870.3 287.078 870.52 286.857L874.283 283.084L878.045 286.857C878.266 287.078 878.623 287.078 878.844 286.857L880.149 285.549C880.369 285.327 880.369 284.968 880.149 284.747L876.386 280.973L880.149 277.2C880.369 276.979 880.369 276.62 880.149 276.398Z" fill="#2257AE"/>
<path d="M911.012 299.189H886.538C886.296 299.189 886.1 299.385 886.1 299.627V301.668C886.1 301.91 886.296 302.107 886.538 302.107H911.012C911.253 302.107 911.449 301.91 911.449 301.668V299.627C911.449 299.385 911.253 299.189 911.012 299.189Z" fill="#2257AE"/>
<path d="M880.032 291.247L878.727 289.939C878.506 289.717 878.149 289.717 877.928 289.939L874.166 293.712L870.403 289.939C870.183 289.717 869.825 289.717 869.604 289.939L868.3 291.247C868.079 291.469 868.079 291.827 868.3 292.049L872.062 295.822L868.3 299.596C868.079 299.817 868.079 300.176 868.3 300.397L869.604 301.706C869.825 301.927 870.183 301.927 870.403 301.706L874.166 297.932L877.928 301.706C878.149 301.927 878.506 301.927 878.727 301.706L880.032 300.397C880.252 300.176 880.252 299.817 880.032 299.596L876.269 295.822L880.032 292.049C880.252 291.827 880.252 291.469 880.032 291.247Z" fill="#2257AE"/>
<path d="M911.012 314.037H886.538C886.296 314.037 886.1 314.234 886.1 314.476V316.517C886.1 316.759 886.296 316.955 886.538 316.955H911.012C911.253 316.955 911.449 316.759 911.449 316.517V314.476C911.449 314.234 911.253 314.037 911.012 314.037Z" fill="#2257AE"/>
<path d="M880.032 306.096L878.727 304.788C878.506 304.566 878.149 304.566 877.928 304.788L874.166 308.561L870.403 304.788C870.183 304.566 869.825 304.566 869.604 304.788L868.3 306.096C868.079 306.317 868.079 306.676 868.3 306.898L872.062 310.671L868.3 314.445C868.079 314.666 868.079 315.025 868.3 315.246L869.604 316.555C869.825 316.776 870.183 316.776 870.403 316.555L874.166 312.781L877.928 316.555C878.149 316.776 878.506 316.776 878.727 316.555L880.032 315.246C880.252 315.025 880.252 314.666 880.032 314.445L876.269 310.671L880.032 306.898C880.252 306.676 880.252 306.317 880.032 306.096Z" fill="#2257AE"/>
<path d="M597.915 281.716V283.344C596.188 283.288 592.146 283.507 587.647 286.213C583.249 288.859 580.665 287.916 580.648 287.909C580.253 287.746 579.798 287.935 579.635 288.332C579.472 288.729 579.661 289.183 580.057 289.347C580.116 289.371 580.783 289.634 581.967 289.634C582.776 289.634 583.834 289.501 585.096 289.095L581.165 302.309H579.968C579.54 302.309 579.193 302.657 579.193 303.087V305.68C579.193 307.081 580.329 308.22 581.726 308.22H591.385C592.782 308.22 593.918 307.081 593.918 305.68V303.087C593.918 302.657 593.571 302.309 593.143 302.309H591.407L587.215 288.22C587.613 288.02 588.02 287.803 588.445 287.547C592.631 285.029 596.432 284.857 597.915 284.905V310.243H594.351C592.947 310.243 591.804 311.389 591.804 312.797V316.058C591.804 316.487 592.151 316.835 592.58 316.835H604.802C605.231 316.835 605.578 316.487 605.578 316.058V312.797C605.578 311.389 604.435 310.243 603.031 310.243H599.467V284.903C600.945 284.852 604.73 285.017 608.937 287.547C609.251 287.736 609.555 287.903 609.853 288.061L605.614 302.309H604.418C603.99 302.309 603.642 302.657 603.642 303.087V305.68C603.642 307.081 604.779 308.22 606.176 308.22H615.835C617.232 308.22 618.368 307.081 618.368 305.68V303.087C618.368 302.657 618.021 302.309 617.593 302.309H615.857L611.887 288.966C613.331 289.482 614.521 289.634 615.415 289.634C616.599 289.634 617.266 289.371 617.325 289.347C617.717 289.184 617.902 288.738 617.745 288.342C617.589 287.947 617.138 287.753 616.742 287.905C616.717 287.916 614.132 288.859 609.735 286.213C605.235 283.506 601.194 283.287 599.467 283.344V281.716C599.467 281.286 599.119 280.938 598.691 280.938C598.263 280.938 597.915 281.286 597.915 281.716ZM592.367 305.68C592.367 306.223 591.927 306.665 591.385 306.665H581.726C581.185 306.665 580.744 306.223 580.744 305.68V303.864H592.367V305.68ZM582.784 302.309L586.286 290.537L589.788 302.309H582.784ZM604.027 312.797V315.28H593.355V312.797C593.355 312.246 593.802 311.798 594.351 311.798H603.031C603.58 311.798 604.027 312.246 604.027 312.797ZM616.817 305.68C616.817 306.223 616.376 306.665 615.835 306.665H606.176C605.634 306.665 605.194 306.223 605.194 305.68V303.864H616.817V305.68ZM607.233 302.309L610.735 290.537L614.238 302.309H607.233Z" fill="#2257AE" stroke="#2257AE"/>
<path d="M629.029 265.93H568.532C568.103 265.93 567.756 266.279 567.756 266.708C567.756 267.137 568.103 267.486 568.532 267.486H582.212V276.435C575.117 281.625 570.494 290.019 570.494 299.48C570.494 315.204 583.254 327.996 598.939 327.996C614.624 327.996 627.384 315.204 627.384 299.48C627.384 290.14 622.882 281.835 615.94 276.63C615.941 276.61 615.951 276.593 615.951 276.573V267.486H629.029C629.457 267.486 629.805 267.137 629.805 266.708C629.805 266.279 629.457 265.93 629.029 265.93ZM625.833 299.48C625.833 314.346 613.768 326.441 598.939 326.441C584.11 326.441 572.045 314.346 572.045 299.48C572.045 284.613 584.11 272.518 598.939 272.518C613.768 272.518 625.833 284.613 625.833 299.48ZM614.4 275.562C609.945 272.658 604.637 270.963 598.939 270.963C593.362 270.963 588.159 272.587 583.764 275.378V267.486H614.4V275.562Z" fill="#2257AE" stroke="#2257AE"/>
<path d="M292.442 304.245C293.538 304.245 294.634 304.245 295.739 304.245C298.371 304.245 301.013 304.245 303.645 304.245C306.835 304.245 310.024 304.245 313.214 304.245C315.963 304.245 318.703 304.245 321.452 304.245C322.791 304.245 324.148 304.29 325.486 304.245C325.504 304.245 325.522 304.245 325.54 304.245C326.241 304.245 326.924 303.625 326.888 302.897C326.852 302.17 326.295 301.55 325.54 301.55C324.444 301.55 323.348 301.55 322.243 301.55C319.611 301.55 316.969 301.55 314.337 301.55C311.147 301.55 307.958 301.55 304.768 301.55C302.019 301.55 299.279 301.55 296.53 301.55C295.191 301.55 293.834 301.505 292.496 301.55C292.478 301.55 292.46 301.55 292.442 301.55C291.741 301.55 291.058 302.17 291.094 302.897C291.13 303.625 291.687 304.245 292.442 304.245Z" fill="#2257AE"/>
<path d="M307.643 303.041C307.652 305 307.661 306.949 307.67 308.908C307.679 312.008 307.697 315.107 307.706 318.207C307.706 318.916 307.715 319.635 307.715 320.345C307.715 321.046 308.335 321.729 309.063 321.693C309.791 321.657 310.411 321.1 310.411 320.345C310.402 318.386 310.393 316.437 310.384 314.478C310.375 311.379 310.357 308.279 310.348 305.179C310.348 304.47 310.339 303.751 310.339 303.041C310.339 302.34 309.719 301.657 308.991 301.693C308.263 301.729 307.643 302.286 307.643 303.041Z" fill="#2257AE"/>
<path d="M285.317 318.144C283.314 318.144 281.31 318.144 279.316 318.144C276.108 318.144 272.901 318.144 269.693 318.144C268.957 318.144 268.22 318.144 267.483 318.144C267.932 318.593 268.382 319.042 268.831 319.491C268.831 316.032 268.831 312.573 268.831 309.115C268.831 306.976 268.831 304.838 268.831 302.691C268.831 302.143 268.831 301.604 268.831 301.056C268.831 300.867 268.831 300.687 268.84 300.498C268.84 300.418 268.849 300.337 268.858 300.247C268.858 300.211 268.921 299.807 268.867 300.112C268.903 299.915 268.939 299.708 268.984 299.51C269.029 299.313 269.091 299.124 269.154 298.935C269.19 298.836 269.217 298.747 269.253 298.657C269.289 298.567 269.28 298.585 269.226 298.702C269.262 298.63 269.289 298.558 269.325 298.486C269.496 298.127 269.693 297.785 269.918 297.462C269.963 297.399 270.008 297.336 270.053 297.273C269.873 297.516 270.107 297.201 270.134 297.174C270.286 296.995 270.448 296.824 270.619 296.662C270.763 296.527 270.906 296.402 271.059 296.276C271.095 296.24 271.266 296.123 271.068 296.267C271.167 296.195 271.257 296.132 271.355 296.06C271.697 295.827 272.065 295.629 272.443 295.458C272.649 295.368 272.146 295.557 272.505 295.44C272.622 295.404 272.73 295.359 272.847 295.323C273.036 295.261 273.233 295.207 273.431 295.162C273.512 295.144 273.593 295.126 273.673 295.108C273.709 295.099 274.114 295.045 273.799 295.081C274.024 295.054 274.257 295.036 274.482 295.027C274.823 295.018 275.174 295.027 275.524 295.027C276.486 295.027 277.447 295 278.399 295.027C278.606 295.036 278.813 295.054 279.019 295.072C278.714 295.036 279.109 295.09 279.145 295.099C279.226 295.117 279.307 295.135 279.388 295.153C279.585 295.198 279.774 295.252 279.971 295.315C280.088 295.35 280.196 295.395 280.313 295.431C280.672 295.548 280.088 295.315 280.43 295.476C280.789 295.647 281.13 295.827 281.463 296.051C281.562 296.114 281.661 296.186 281.75 296.258C281.705 296.222 281.562 296.096 281.759 296.267C281.939 296.42 282.11 296.572 282.28 296.743C282.415 296.878 282.55 297.022 282.676 297.174C282.667 297.165 282.909 297.471 282.793 297.309C282.676 297.156 282.9 297.462 282.9 297.453C283.152 297.812 283.359 298.19 283.538 298.585C283.646 298.818 283.556 298.639 283.538 298.594C283.583 298.702 283.619 298.818 283.664 298.935C283.727 299.124 283.781 299.322 283.835 299.51C283.88 299.708 283.925 299.906 283.952 300.112C283.907 299.843 283.952 300.112 283.961 300.184C283.979 300.328 283.988 300.472 283.988 300.615C283.996 300.984 283.988 301.343 283.988 301.711C283.988 303.571 283.988 305.431 283.988 307.3C283.988 311.28 283.988 315.269 283.988 319.249C283.988 319.33 283.988 319.402 283.988 319.482C283.988 320.183 284.607 320.866 285.335 320.83C286.063 320.794 286.683 320.237 286.683 319.482C286.683 315.889 286.683 312.295 286.683 308.701C286.683 306.572 286.683 304.443 286.683 302.304C286.683 301.846 286.683 301.388 286.683 300.921C286.674 299.411 286.296 297.911 285.542 296.59C284.571 294.91 283.044 293.643 281.256 292.925C279.989 292.413 278.66 292.332 277.312 292.332C276.315 292.332 275.309 292.287 274.311 292.341C272.335 292.44 270.484 293.203 269.002 294.506C267.627 295.71 266.63 297.453 266.315 299.259C266.189 299.977 266.163 300.678 266.163 301.406C266.163 303.221 266.163 305.045 266.163 306.859C266.163 310.983 266.163 315.098 266.163 319.222C266.163 319.303 266.163 319.384 266.163 319.465C266.163 320.192 266.782 320.812 267.51 320.812C269.514 320.812 271.517 320.812 273.512 320.812C276.719 320.812 279.927 320.812 283.134 320.812C283.871 320.812 284.607 320.812 285.344 320.812C286.045 320.812 286.728 320.192 286.692 319.465C286.629 318.764 286.072 318.144 285.317 318.144Z" fill="#2257AE"/>
<path d="M268.975 283.293C269.002 286.51 270.942 289.385 273.961 290.544C276.818 291.64 280.214 290.616 282.11 288.244C284.122 285.728 284.446 282.161 282.811 279.349C281.211 276.591 278.04 275.163 274.922 275.773C271.409 276.456 269.011 279.798 268.975 283.293C268.966 283.994 269.604 284.677 270.322 284.641C271.059 284.605 271.661 284.048 271.67 283.293C271.67 283.15 271.679 282.997 271.688 282.853C271.697 282.772 271.742 282.404 271.697 282.656C271.751 282.332 271.823 282.018 271.921 281.703C271.966 281.568 272.011 281.434 272.056 281.308C272.11 281.164 272.047 281.335 272.038 281.353C272.074 281.281 272.101 281.209 272.137 281.137C272.272 280.85 272.434 280.58 272.613 280.32C272.658 280.248 272.82 280.041 272.685 280.212C272.784 280.086 272.883 279.969 272.991 279.861C273.188 279.646 273.404 279.457 273.629 279.268C273.781 279.134 273.467 279.385 273.629 279.268C273.673 279.232 273.718 279.197 273.772 279.17C273.88 279.098 273.997 279.017 274.114 278.954C274.23 278.882 274.347 278.819 274.473 278.756C274.545 278.72 274.617 278.693 274.68 278.657C274.509 278.738 274.626 278.675 274.734 278.639C274.994 278.55 275.255 278.469 275.524 278.406C275.614 278.388 275.964 278.325 275.695 278.361C275.857 278.343 276.018 278.325 276.18 278.325C276.468 278.316 276.746 278.325 277.034 278.352C277.303 278.379 277.088 278.361 277.034 278.352C277.114 278.37 277.186 278.379 277.267 278.397C277.42 278.433 277.573 278.469 277.725 278.514C277.86 278.55 277.986 278.595 278.112 278.639C278.148 278.648 278.372 278.747 278.22 278.684C278.076 278.622 278.255 278.702 278.273 278.711C278.552 278.855 278.821 278.999 279.082 279.17C279.127 279.206 279.181 279.241 279.226 279.268C279.396 279.385 279.073 279.143 279.226 279.268C279.334 279.358 279.432 279.439 279.531 279.538C279.747 279.736 279.945 279.951 280.124 280.176C280.259 280.338 280.007 280.014 280.124 280.185C280.16 280.23 280.196 280.284 280.223 280.329C280.313 280.454 280.394 280.589 280.475 280.724C280.538 280.823 280.591 280.931 280.645 281.038C280.681 281.11 280.717 281.182 280.753 281.254C280.861 281.479 280.726 281.173 280.78 281.317C280.879 281.586 280.969 281.847 281.032 282.125C281.068 282.269 281.095 282.404 281.121 282.548C281.13 282.602 281.157 282.808 281.13 282.557C281.139 282.638 281.148 282.718 281.157 282.808C281.184 283.123 281.184 283.446 281.157 283.761C281.148 283.841 281.104 284.219 281.148 283.958C281.121 284.12 281.095 284.282 281.059 284.443C280.996 284.722 280.906 284.982 280.816 285.252C280.735 285.495 280.798 285.315 280.816 285.261C280.78 285.333 280.753 285.405 280.717 285.477C280.645 285.62 280.573 285.755 280.493 285.899C280.421 286.016 280.349 286.132 280.277 286.249C280.232 286.312 280.016 286.6 280.178 286.402C279.998 286.627 279.801 286.842 279.585 287.049C279.486 287.139 279.388 287.229 279.28 287.318C279.091 287.489 279.235 287.354 279.28 287.318C279.217 287.363 279.154 287.408 279.091 287.453C278.848 287.615 278.597 287.75 278.336 287.893C278.282 287.92 278.229 287.947 278.175 287.965C278.408 287.857 278.229 287.947 278.175 287.965C278.049 288.01 277.914 288.055 277.788 288.1C277.654 288.136 277.528 288.172 277.393 288.208C277.312 288.226 277.24 288.235 277.159 288.253C276.908 288.316 277.267 288.253 277.105 288.271C276.818 288.298 276.539 288.316 276.252 288.307C276.108 288.307 275.973 288.289 275.83 288.28C275.767 288.271 275.578 288.226 275.83 288.28C275.749 288.262 275.677 288.253 275.596 288.235C275.273 288.163 274.949 288.073 274.635 287.947C274.491 287.893 274.671 287.965 274.689 287.974C274.599 287.929 274.509 287.893 274.428 287.848C274.275 287.768 274.123 287.687 273.97 287.588C273.835 287.507 273.709 287.417 273.584 287.327C273.79 287.48 273.476 287.238 273.404 287.175C273.161 286.95 272.937 286.716 272.721 286.456C272.622 286.339 272.739 286.483 272.748 286.501C272.694 286.42 272.631 286.339 272.577 286.258C272.488 286.123 272.407 285.998 272.326 285.854C272.236 285.701 272.164 285.539 272.083 285.378C272.074 285.36 272.002 285.18 272.056 285.324C272.119 285.486 272.002 285.18 271.993 285.153C271.886 284.848 271.796 284.533 271.742 284.219C271.724 284.138 271.715 284.057 271.697 283.976C271.724 284.174 271.706 284.012 271.697 283.904C271.679 283.716 271.67 283.527 271.67 283.338C271.661 282.638 271.059 281.955 270.322 281.991C269.604 281.973 268.975 282.539 268.975 283.293Z" fill="#2257AE"/>
<path d="M350.526 318.144C348.522 318.144 346.519 318.144 344.524 318.144C341.317 318.144 338.109 318.144 334.902 318.144C334.165 318.144 333.429 318.144 332.692 318.144C333.141 318.593 333.59 319.042 334.039 319.491C334.039 316.032 334.039 312.573 334.039 309.115C334.039 306.976 334.039 304.838 334.039 302.691C334.039 302.143 334.039 301.604 334.039 301.056C334.039 300.867 334.039 300.687 334.048 300.498C334.048 300.418 334.057 300.337 334.066 300.247C334.066 300.211 334.129 299.807 334.075 300.112C334.111 299.915 334.147 299.708 334.192 299.51C334.237 299.313 334.3 299.124 334.363 298.935C334.399 298.836 334.426 298.747 334.462 298.657C334.498 298.567 334.489 298.585 334.435 298.702C334.471 298.63 334.498 298.558 334.534 298.486C334.704 298.127 334.902 297.785 335.127 297.462C335.171 297.399 335.216 297.336 335.261 297.273C335.082 297.516 335.315 297.201 335.342 297.174C335.495 296.995 335.657 296.824 335.827 296.662C335.971 296.527 336.115 296.402 336.268 296.276C336.304 296.24 336.474 296.123 336.277 296.267C336.375 296.195 336.465 296.132 336.564 296.06C336.905 295.827 337.274 295.629 337.651 295.458C337.858 295.368 337.355 295.557 337.714 295.44C337.831 295.404 337.939 295.359 338.055 295.323C338.244 295.261 338.442 295.207 338.639 295.162C338.72 295.144 338.801 295.126 338.882 295.108C338.918 295.099 339.322 295.045 339.008 295.081C339.232 295.054 339.466 295.036 339.691 295.027C340.032 295.018 340.382 295.027 340.733 295.027C341.694 295.027 342.655 295 343.608 295.027C343.814 295.036 344.021 295.054 344.228 295.072C343.922 295.036 344.318 295.09 344.354 295.099C344.434 295.117 344.515 295.135 344.596 295.153C344.794 295.198 344.982 295.252 345.18 295.315C345.297 295.35 345.405 295.395 345.521 295.431C345.881 295.548 345.297 295.315 345.638 295.476C345.998 295.647 346.339 295.827 346.671 296.051C346.77 296.114 346.869 296.186 346.959 296.258C346.914 296.222 346.77 296.096 346.968 296.267C347.148 296.42 347.318 296.572 347.489 296.743C347.624 296.878 347.759 297.022 347.884 297.174C347.875 297.165 348.118 297.471 348.001 297.309C347.884 297.156 348.109 297.462 348.109 297.453C348.361 297.812 348.567 298.19 348.747 298.585C348.855 298.818 348.765 298.639 348.747 298.594C348.792 298.702 348.828 298.818 348.873 298.935C348.936 299.124 348.989 299.322 349.043 299.51C349.088 299.708 349.133 299.906 349.16 300.112C349.115 299.843 349.16 300.112 349.169 300.184C349.187 300.328 349.196 300.472 349.196 300.615C349.205 300.984 349.196 301.343 349.196 301.711C349.196 303.571 349.196 305.431 349.196 307.3C349.196 311.28 349.196 315.269 349.196 319.249C349.196 319.33 349.196 319.402 349.196 319.482C349.196 320.183 349.816 320.866 350.544 320.83C351.271 320.794 351.891 320.237 351.891 319.482C351.891 315.889 351.891 312.295 351.891 308.701C351.891 306.572 351.891 304.443 351.891 302.304C351.891 301.846 351.891 301.388 351.891 300.921C351.882 299.411 351.505 297.911 350.75 296.59C349.78 294.91 348.253 293.643 346.465 292.925C345.198 292.413 343.868 292.332 342.521 292.332C341.523 292.332 340.517 292.287 339.52 292.341C337.543 292.44 335.693 293.203 334.21 294.506C332.836 295.71 331.838 297.453 331.524 299.259C331.398 299.977 331.371 300.678 331.371 301.406C331.371 303.221 331.371 305.045 331.371 306.859C331.371 310.983 331.371 315.098 331.371 319.222C331.371 319.303 331.371 319.384 331.371 319.465C331.371 320.192 331.991 320.812 332.719 320.812C334.722 320.812 336.726 320.812 338.72 320.812C341.928 320.812 345.135 320.812 348.343 320.812C349.079 320.812 349.816 320.812 350.553 320.812C351.253 320.812 351.936 320.192 351.9 319.465C351.837 318.764 351.28 318.144 350.526 318.144Z" fill="#2257AE"/>
<path d="M334.183 283.293C334.21 286.51 336.151 289.385 339.17 290.544C342.027 291.64 345.423 290.616 347.318 288.244C349.331 285.728 349.654 282.161 348.019 279.349C346.42 276.591 343.248 275.163 340.131 275.773C336.618 276.456 334.219 279.798 334.183 283.293C334.174 283.994 334.812 284.677 335.531 284.641C336.268 284.605 336.87 284.048 336.879 283.293C336.879 283.15 336.887 282.997 336.896 282.853C336.905 282.772 336.95 282.404 336.905 282.656C336.959 282.332 337.031 282.018 337.13 281.703C337.175 281.568 337.22 281.434 337.265 281.308C337.319 281.164 337.256 281.335 337.247 281.353C337.283 281.281 337.31 281.209 337.346 281.137C337.48 280.85 337.642 280.58 337.822 280.32C337.867 280.248 338.029 280.041 337.894 280.212C337.993 280.086 338.091 279.969 338.199 279.861C338.397 279.646 338.612 279.457 338.837 279.268C338.99 279.134 338.675 279.385 338.837 279.268C338.882 279.232 338.927 279.197 338.981 279.17C339.089 279.098 339.205 279.017 339.322 278.954C339.439 278.882 339.556 278.819 339.682 278.756C339.754 278.72 339.825 278.693 339.888 278.657C339.718 278.738 339.834 278.675 339.942 278.639C340.203 278.55 340.463 278.469 340.733 278.406C340.823 278.388 341.173 278.325 340.904 278.361C341.065 278.343 341.227 278.325 341.389 278.325C341.676 278.316 341.955 278.325 342.242 278.352C342.512 278.379 342.296 278.361 342.242 278.352C342.323 278.37 342.395 278.379 342.476 278.397C342.629 278.433 342.781 278.469 342.934 278.514C343.069 278.55 343.195 278.595 343.32 278.639C343.356 278.648 343.581 278.747 343.428 278.684C343.284 278.622 343.464 278.702 343.482 278.711C343.761 278.855 344.03 278.999 344.291 279.17C344.336 279.206 344.389 279.241 344.434 279.268C344.605 279.385 344.282 279.143 344.434 279.268C344.542 279.358 344.641 279.439 344.74 279.538C344.955 279.736 345.153 279.951 345.333 280.176C345.468 280.338 345.216 280.014 345.333 280.185C345.369 280.23 345.405 280.284 345.432 280.329C345.521 280.454 345.602 280.589 345.683 280.724C345.746 280.823 345.8 280.931 345.854 281.038C345.89 281.11 345.926 281.182 345.962 281.254C346.07 281.479 345.935 281.173 345.989 281.317C346.087 281.586 346.177 281.847 346.24 282.125C346.276 282.269 346.303 282.404 346.33 282.548C346.339 282.602 346.366 282.808 346.339 282.557C346.348 282.638 346.357 282.718 346.366 282.808C346.393 283.123 346.393 283.446 346.366 283.761C346.357 283.841 346.312 284.219 346.357 283.958C346.33 284.12 346.303 284.282 346.267 284.443C346.204 284.722 346.114 284.982 346.025 285.252C345.944 285.495 346.007 285.315 346.025 285.261C345.989 285.333 345.962 285.405 345.926 285.477C345.854 285.62 345.782 285.755 345.701 285.899C345.629 286.016 345.557 286.132 345.486 286.249C345.441 286.312 345.225 286.6 345.387 286.402C345.207 286.627 345.009 286.842 344.794 287.049C344.695 287.139 344.596 287.229 344.488 287.318C344.3 287.489 344.443 287.354 344.488 287.318C344.425 287.363 344.362 287.408 344.3 287.453C344.057 287.615 343.805 287.75 343.545 287.893C343.491 287.92 343.437 287.947 343.383 287.965C343.617 287.857 343.437 287.947 343.383 287.965C343.257 288.01 343.123 288.055 342.997 288.1C342.862 288.136 342.736 288.172 342.602 288.208C342.521 288.226 342.449 288.235 342.368 288.253C342.116 288.316 342.476 288.253 342.314 288.271C342.027 288.298 341.748 288.316 341.461 288.307C341.317 288.307 341.182 288.289 341.038 288.28C340.975 288.271 340.787 288.226 341.038 288.28C340.957 288.262 340.886 288.253 340.805 288.235C340.481 288.163 340.158 288.073 339.843 287.947C339.7 287.893 339.879 287.965 339.897 287.974C339.807 287.929 339.718 287.893 339.637 287.848C339.484 287.768 339.331 287.687 339.179 287.588C339.044 287.507 338.918 287.417 338.792 287.327C338.999 287.48 338.684 287.238 338.612 287.175C338.37 286.95 338.145 286.716 337.93 286.456C337.831 286.339 337.948 286.483 337.957 286.501C337.903 286.42 337.84 286.339 337.786 286.258C337.696 286.123 337.615 285.998 337.534 285.854C337.445 285.701 337.373 285.539 337.292 285.378C337.283 285.36 337.211 285.18 337.265 285.324C337.328 285.486 337.211 285.18 337.202 285.153C337.094 284.848 337.004 284.533 336.95 284.219C336.932 284.138 336.923 284.057 336.905 283.976C336.932 284.174 336.914 284.012 336.905 283.904C336.887 283.716 336.879 283.527 336.879 283.338C336.87 282.638 336.268 281.955 335.531 281.991C334.812 281.973 334.183 282.539 334.183 283.293Z" fill="#2257AE"/>
<path d="M314.211 278.064C314.211 276.735 314.561 274.839 313.187 274.057C312.531 273.68 311.668 273.788 310.941 273.788C308.209 273.788 305.478 273.788 302.738 273.788C300.842 273.788 298.929 273.707 297.042 273.788C295.901 273.833 295.047 274.686 295.002 275.827C294.993 276.088 295.002 276.357 295.002 276.627C295.002 277.966 295.002 279.313 295.002 280.652C295.002 281.91 295.002 283.177 295.002 284.434C295.002 284.794 294.984 285.162 295.083 285.504C295.281 286.168 295.811 286.707 296.476 286.896C296.808 286.995 297.168 286.977 297.518 286.977C297.796 286.977 298.075 286.977 298.354 286.977C298.03 286.654 297.707 286.33 297.383 286.007C297.383 287.534 297.383 289.052 297.383 290.58C297.383 291.424 298.443 291.864 299.045 291.271C300.564 289.744 302.082 288.226 303.609 286.698C303.376 286.797 303.151 286.887 302.918 286.986C303.753 286.986 304.589 286.986 305.424 286.986C306.673 286.986 306.673 285.045 305.424 285.045C304.75 285.045 304.086 285.045 303.412 285.045C302.98 285.045 302.585 285.009 302.226 285.333C302.145 285.405 302.073 285.486 302.001 285.557C300.914 286.645 299.827 287.741 298.74 288.828C298.38 289.187 298.03 289.546 297.671 289.906C298.228 290.139 298.776 290.364 299.333 290.598C299.333 289.07 299.333 287.552 299.333 286.025C299.333 285.495 298.884 285.054 298.363 285.054C298.111 285.054 297.868 285.054 297.617 285.054C297.464 285.054 297.311 285.063 297.168 285.054C297.159 285.054 296.997 285.054 297.078 285.081C296.943 285.045 296.97 285 296.961 284.929C296.952 284.83 296.961 284.722 296.961 284.623C296.961 283.527 296.961 282.44 296.961 281.344C296.961 280.005 296.961 278.666 296.961 277.328C296.961 276.914 296.961 276.51 296.961 276.097C296.961 276.025 296.952 275.944 296.961 275.872C296.97 275.818 297.006 275.764 297.051 275.764C298.668 275.684 300.312 275.764 301.938 275.764C304.607 275.764 307.275 275.764 309.943 275.764C310.662 275.764 311.426 275.693 312.145 275.764C312.207 275.773 312.243 275.773 312.243 275.773C312.306 275.863 312.279 276.115 312.279 276.304C312.279 276.896 312.279 277.489 312.279 278.091C312.261 279.313 314.211 279.313 314.211 278.064Z" fill="#2257AE"/>
<path d="M306.439 278.999C310.186 278.999 313.932 278.999 317.67 278.999C318.523 278.999 319.368 278.999 320.222 278.999C320.446 278.999 320.671 278.99 320.895 278.999C321.075 279.008 321.102 278.972 321.129 279.098C321.138 279.152 321.12 279.421 321.12 279.529C321.12 279.942 321.12 280.346 321.12 280.76C321.12 281.955 321.12 283.141 321.12 284.336C321.12 285.414 321.12 286.483 321.12 287.561C321.12 287.651 321.129 287.75 321.12 287.848C321.111 287.929 321.138 287.965 321.012 288.001C321.084 287.983 320.931 287.974 320.922 287.974C320.779 287.983 320.626 287.974 320.482 287.974C320.239 287.974 320.006 287.974 319.763 287.974C319.26 287.974 318.829 288.405 318.829 288.909C318.829 290.382 318.829 291.846 318.829 293.32C319.359 293.095 319.898 292.88 320.428 292.655C319.134 291.352 317.832 290.059 316.538 288.756C316.367 288.585 316.205 288.405 316.035 288.253C315.738 287.983 315.442 287.974 315.091 287.974C314.22 287.974 313.357 287.974 312.486 287.974C310.518 287.974 308.542 288.037 306.574 287.974C306.395 287.965 306.359 287.983 306.35 287.884C306.341 287.705 306.35 287.534 306.35 287.354C306.35 286.375 306.35 285.405 306.35 284.425C306.35 283.132 306.35 281.838 306.35 280.553C306.35 280.158 306.35 279.762 306.35 279.367C306.35 279.286 306.341 279.196 306.35 279.116C306.359 279.053 306.386 279.008 306.439 278.999C307.634 278.927 307.643 277.058 306.439 277.121C305.227 277.193 304.481 278.1 304.481 279.277C304.481 279.897 304.481 280.508 304.481 281.128C304.481 282.952 304.481 284.767 304.481 286.591C304.481 287.013 304.463 287.444 304.481 287.875C304.526 289.043 305.415 289.834 306.556 289.843C308.039 289.861 309.521 289.843 311.004 289.843C312.459 289.843 313.923 289.843 315.379 289.843C315.154 289.753 314.939 289.663 314.714 289.564C316.179 291.038 317.643 292.502 319.107 293.976C319.682 294.551 320.707 294.128 320.707 293.311C320.707 291.837 320.707 290.373 320.707 288.9C320.392 289.214 320.078 289.528 319.772 289.834C320.213 289.834 320.662 289.852 321.102 289.834C322.18 289.771 322.962 288.936 323.007 287.866C323.034 287.166 323.007 286.456 323.007 285.755C323.007 283.59 323.025 281.416 323.007 279.241C322.998 278.028 322.18 277.13 320.94 277.112C320.32 277.103 319.709 277.112 319.089 277.112C316.628 277.112 314.166 277.112 311.704 277.112C309.952 277.112 308.2 277.112 306.439 277.112C305.227 277.13 305.227 278.999 306.439 278.999Z" fill="#2257AE"/>
<defs>
<filter id="filter0_d" x="226" y="221" width="165" height="165" filterUnits="userSpaceOnUse" color-interpolation-filters="sRGB">
<feFlood flood-opacity="0" result="BackgroundImageFix"/>
<feColorMatrix in="SourceAlpha" type="matrix" values="0 0 0 0 0 0 0 0 0 0 0 0 0 0 0 0 0 0 127 0"/>
<feOffset dy="8"/>
<feGaussianBlur stdDeviation="6"/>
<feColorMatrix type="matrix" values="0 0 0 0 0 0 0 0 0 0 0 0 0 0 0 0 0 0 0.1 0"/>
<feBlend mode="normal" in2="BackgroundImageFix" result="effect1_dropShadow"/>
<feBlend mode="normal" in="SourceGraphic" in2="effect1_dropShadow" result="shape"/>
</filter>
<filter id="filter1_d" x="517" y="221" width="165" height="165" filterUnits="userSpaceOnUse" color-interpolation-filters="sRGB">
<feFlood flood-opacity="0" result="BackgroundImageFix"/>
<feColorMatrix in="SourceAlpha" type="matrix" values="0 0 0 0 0 0 0 0 0 0 0 0 0 0 0 0 0 0 127 0"/>
<feOffset dy="8"/>
<feGaussianBlur stdDeviation="6"/>
<feColorMatrix type="matrix" values="0 0 0 0 0 0 0 0 0 0 0 0 0 0 0 0 0 0 0.1 0"/>
<feBlend mode="normal" in2="BackgroundImageFix" result="effect1_dropShadow"/>
<feBlend mode="normal" in="SourceGraphic" in2="effect1_dropShadow" result="shape"/>
</filter>
<filter id="filter2_d" x="808" y="221" width="165" height="165" filterUnits="userSpaceOnUse" color-interpolation-filters="sRGB">
<feFlood flood-opacity="0" result="BackgroundImageFix"/>
<feColorMatrix in="SourceAlpha" type="matrix" values="0 0 0 0 0 0 0 0 0 0 0 0 0 0 0 0 0 0 127 0"/>
<feOffset dy="8"/>
<feGaussianBlur stdDeviation="6"/>
<feColorMatrix type="matrix" values="0 0 0 0 0 0 0 0 0 0 0 0 0 0 0 0 0 0 0.1 0"/>
<feBlend mode="normal" in2="BackgroundImageFix" result="effect1_dropShadow"/>
<feBlend mode="normal" in="SourceGraphic" in2="effect1_dropShadow" result="shape"/>
</filter>
<filter id="filter3_d" x="1099" y="221" width="165" height="165" filterUnits="userSpaceOnUse" color-interpolation-filters="sRGB">
<feFlood flood-opacity="0" result="BackgroundImageFix"/>
<feColorMatrix in="SourceAlpha" type="matrix" values="0 0 0 0 0 0 0 0 0 0 0 0 0 0 0 0 0 0 127 0"/>
<feOffset dy="8"/>
<feGaussianBlur stdDeviation="6"/>
<feColorMatrix type="matrix" values="0 0 0 0 0 0 0 0 0 0 0 0 0 0 0 0 0 0 0.1 0"/>
<feBlend mode="normal" in2="BackgroundImageFix" result="effect1_dropShadow"/>
<feBlend mode="normal" in="SourceGraphic" in2="effect1_dropShadow" result="shape"/>
</filter>
<filter id="filter4_d" x="1390" y="221" width="165" height="165" filterUnits="userSpaceOnUse" color-interpolation-filters="sRGB">
<feFlood flood-opacity="0" result="BackgroundImageFix"/>
<feColorMatrix in="SourceAlpha" type="matrix" values="0 0 0 0 0 0 0 0 0 0 0 0 0 0 0 0 0 0 127 0"/>
<feOffset dy="8"/>
<feGaussianBlur stdDeviation="6"/>
<feColorMatrix type="matrix" values="0 0 0 0 0 0 0 0 0 0 0 0 0 0 0 0 0 0 0.1 0"/>
<feBlend mode="normal" in2="BackgroundImageFix" result="effect1_dropShadow"/>
<feBlend mode="normal" in="SourceGraphic" in2="effect1_dropShadow" result="shape"/>
</filter>
<clipPath id="clip0">
<rect width="71" height="88" fill="white" transform="translate(1146 263)"/>
</clipPath>
</defs>
</svg>
