<svg width="58" height="58" viewBox="0 0 58 58" fill="none" xmlns="http://www.w3.org/2000/svg">
<path d="M31.4762 41.789C29.9935 40.509 28.2928 39.5273 26.4455 38.774C27.8522 36.786 28.8426 34.4007 28.8426 32.2372C28.8426 27.1116 24.6182 22.8872 19.4926 22.8872C14.367 22.8872 10.1426 27.1116 10.1426 32.2372C10.1426 34.4042 11.1362 36.7109 12.5406 38.7651C6.31181 41.14 1.83038 46.7407 0.78325 53.2852L0.783184 53.2852L0.782402 53.2909C0.500144 55.3608 2.0984 57.2497 4.18011 57.2497H34.5426C35.9836 57.2497 37.3533 56.3829 37.7973 54.8872H54.2301C56.1332 54.8872 57.5627 53.1759 57.2773 51.3622C56.4914 45.9526 52.7982 41.3177 47.7926 39.2129C48.934 37.5719 49.6676 35.625 49.6676 33.8997C49.6676 29.4723 46.0538 25.9497 41.7176 25.9497C37.2902 25.9497 33.7676 29.5635 33.7676 33.8997C33.7676 35.6279 34.5823 37.5724 35.648 39.203C34.1333 39.8019 32.6997 40.6854 31.4762 41.789ZM12.3051 32.1497H12.3052L12.3051 32.1443C12.2207 28.2646 15.4276 25.0497 19.4051 25.0497C23.292 25.0497 26.5051 28.2628 26.5051 32.1497C26.5051 34.1195 25.28 36.4695 23.74 38.3458C22.9742 39.2788 22.1415 40.0809 21.3659 40.6472C20.579 41.2218 19.8904 41.5247 19.4051 41.5247C18.9199 41.5247 18.2312 41.2218 17.4443 40.6472C16.6688 40.0809 15.8361 39.2788 15.0702 38.3458C13.5302 36.4695 12.3051 34.1195 12.3051 32.1497ZM35.6076 53.6226L35.6072 53.6226L35.61 53.6362C35.7562 54.3673 35.249 54.9997 34.5426 54.9997H29.0176V48.9497C29.0176 48.6304 28.9101 48.3449 28.7038 48.1386C28.4974 47.9322 28.2119 47.8247 27.8926 47.8247C27.5733 47.8247 27.2878 47.9322 27.0815 48.1386C26.8751 48.3449 26.7676 48.6304 26.7676 48.9497V54.9997H11.9551V48.9497C11.9551 48.6304 11.8476 48.3449 11.6413 48.1386C11.4349 47.9322 11.1494 47.8247 10.8301 47.8247C10.5108 47.8247 10.2253 47.9322 10.019 48.1386C9.81264 48.3449 9.70511 48.6304 9.70511 48.9497V54.9997H4.18011C3.47839 54.9997 2.9568 54.3679 3.02821 53.6188C3.97024 47.6412 8.12712 42.5957 13.8197 40.5774C14.6769 41.5018 15.6147 42.3037 16.5378 42.8833C17.4963 43.4852 18.4626 43.8622 19.3176 43.8622C20.1726 43.8622 21.1389 43.4852 22.0974 42.8833C23.0205 42.3037 23.9583 41.5018 24.8155 40.5774C30.5143 42.5973 34.754 47.6469 35.6076 53.6226ZM55.0331 51.788L55.0335 51.7908C55.0955 52.1626 54.7765 52.6372 54.2301 52.6372H49.5801V47.7247C49.5801 47.4054 49.4726 47.1199 49.2663 46.9136C49.0599 46.7072 48.7744 46.5997 48.4551 46.5997C48.1358 46.5997 47.8503 46.7072 47.644 46.9136C47.4376 47.1199 47.3301 47.4054 47.3301 47.7247V52.6372H37.8156C37.1803 49.0852 35.4957 45.8654 33.0719 43.3659C34.269 42.3674 35.6038 41.5909 37.0096 41.1004C37.7348 41.8513 38.5199 42.5015 39.2904 42.9724C40.0957 43.4646 40.908 43.7747 41.6301 43.7747C42.3523 43.7747 43.1645 43.4646 43.9698 42.9724C44.7399 42.5018 45.5246 41.852 46.2494 41.1016C50.8958 42.7687 54.2679 46.8571 55.0331 51.788ZM41.6301 28.1122C44.8147 28.1122 47.3301 30.7104 47.3301 33.8122C47.3301 35.4331 46.3445 37.346 45.1004 38.8714C44.4823 39.6293 43.811 40.278 43.1873 40.7349C42.5522 41.2001 42.0058 41.4372 41.6301 41.4372C41.2544 41.4372 40.708 41.2001 40.073 40.7349C39.4492 40.278 38.7779 39.6293 38.1598 38.8714C36.9157 37.346 35.9301 35.4331 35.9301 33.8122C35.9301 30.7128 38.5307 28.1122 41.6301 28.1122Z" fill="black" stroke="black" stroke-width="0.5"/>
<path d="M45.9858 21.9826L45.9858 21.9827L45.9901 21.9877C46.328 22.3819 46.833 22.4614 47.2433 22.3247C47.6543 22.1877 48.0049 21.8203 48.0049 21.3V17.875H50.1174C51.7429 17.875 52.9924 16.6256 52.9924 15V3.625C52.9924 1.99943 51.7429 0.75 50.1174 0.75H7.94238C6.31681 0.75 5.06738 1.99943 5.06738 3.625V15C5.06738 16.631 6.40976 17.875 7.94238 17.875H10.0549V21.3C10.0549 21.8138 10.3979 22.2041 10.8094 22.355C11.2272 22.5082 11.7403 22.4241 12.0768 21.9791L15.4114 17.875H42.6484L45.9858 21.9826ZM12.3049 18.1373V16.75C12.3049 16.4307 12.1974 16.1452 11.991 15.9388C11.7847 15.7325 11.4992 15.625 11.1799 15.625H7.94238C7.73669 15.625 7.58471 15.5575 7.48478 15.4576C7.38485 15.3577 7.31738 15.2057 7.31738 15V3.625C7.31738 3.41931 7.38485 3.26733 7.48478 3.1674C7.58471 3.06747 7.73669 3 7.94238 3H50.0299C50.2356 3 50.3875 3.06747 50.4875 3.1674C50.5874 3.26733 50.6549 3.41931 50.6549 3.625V15C50.6549 15.2057 50.5874 15.3577 50.4875 15.4576C50.3875 15.5575 50.2356 15.625 50.0299 15.625H46.7924C46.4731 15.625 46.1875 15.7325 45.9812 15.9388C45.7749 16.1452 45.6674 16.4307 45.6674 16.75V18.1373L44.0126 16.0688L44.0039 16.058L43.9942 16.0482C43.8029 15.857 43.4796 15.625 43.1174 15.625H14.8549C14.5377 15.625 14.1874 15.7331 13.9533 16.0768L12.3049 18.1373Z" fill="black" stroke="black" stroke-width="0.5"/>
<path d="M14.6807 13.0625C16.7437 13.0625 18.4307 11.3756 18.4307 9.3125C18.4307 7.24943 16.7437 5.5625 14.6807 5.5625C12.6176 5.5625 10.9307 7.24943 10.9307 9.3125C10.9307 11.3756 12.6176 13.0625 14.6807 13.0625ZM14.6807 7.8125C15.5051 7.8125 16.1807 8.48807 16.1807 9.3125C16.1807 10.1369 15.5051 10.8125 14.6807 10.8125C13.8562 10.8125 13.1807 10.1369 13.1807 9.3125C13.1807 8.48807 13.8562 7.8125 14.6807 7.8125Z" fill="black" stroke="black" stroke-width="0.5"/>
<path d="M24.2178 13.0625C26.2808 13.0625 27.9678 11.3756 27.9678 9.3125C27.9678 7.24943 26.2808 5.5625 24.2178 5.5625C22.1547 5.5625 20.4678 7.24943 20.4678 9.3125C20.4678 11.3756 22.1547 13.0625 24.2178 13.0625ZM24.2178 7.8125C25.0422 7.8125 25.7178 8.48807 25.7178 9.3125C25.7178 10.1369 25.0422 10.8125 24.2178 10.8125C23.3933 10.8125 22.7178 10.1369 22.7178 9.3125C22.7178 8.48807 23.3933 7.8125 24.2178 7.8125Z" fill="black" stroke="black" stroke-width="0.5"/>
<path d="M33.8428 13.0625C35.9058 13.0625 37.5928 11.3756 37.5928 9.3125C37.5928 7.24943 35.9058 5.5625 33.8428 5.5625C31.7797 5.5625 30.0928 7.24943 30.0928 9.3125C30.0928 11.3756 31.7797 13.0625 33.8428 13.0625ZM33.8428 7.8125C34.6672 7.8125 35.3428 8.48807 35.3428 9.3125C35.3428 10.1369 34.6672 10.8125 33.8428 10.8125C33.0183 10.8125 32.3428 10.1369 32.3428 9.3125C32.3428 8.48807 33.0183 7.8125 33.8428 7.8125Z" fill="black" stroke="black" stroke-width="0.5"/>
<path d="M43.3799 13.0625C45.443 13.0625 47.1299 11.3756 47.1299 9.3125C47.1299 7.24943 45.443 5.5625 43.3799 5.5625C41.3168 5.5625 39.6299 7.24943 39.6299 9.3125C39.6299 11.3756 41.3168 13.0625 43.3799 13.0625ZM43.3799 7.8125C44.2043 7.8125 44.8799 8.48807 44.8799 9.3125C44.8799 10.1369 44.2043 10.8125 43.3799 10.8125C42.5555 10.8125 41.8799 10.1369 41.8799 9.3125C41.8799 8.48807 42.5555 7.8125 43.3799 7.8125Z" fill="black" stroke="black" stroke-width="0.5"/>
</svg>
