<svg width="58" height="52" viewBox="0 0 58 52" fill="none" xmlns="http://www.w3.org/2000/svg">
<path d="M13.3232 45.4556H13.0732V45.7056V51.2391V51.4891H13.3232H44.6745H44.9245V51.2391V45.7056H44.6762V45.4556H44.6745H44.4245H13.3232ZM42.6762 47.7056V49.2391H15.3232V47.7056H42.6762Z" fill="black" stroke="black" stroke-width="0.5"/>
<path d="M20.6875 36.7036H20.4375V36.9536V46.4911V46.7411H20.6875H22.4375H22.6875V46.4911V36.9536V36.7036H22.4375H20.6875Z" fill="black" stroke="black" stroke-width="0.5"/>
<path d="M35.5625 36.5464H35.3125V36.7964V46.3339V46.5839H35.5625H37.3125H37.5625V46.3339V36.7964V36.5464H37.3125H35.5625Z" fill="black" stroke="black" stroke-width="0.5"/>
<path d="M5.375 38H52.625C55.1763 38 57.25 35.9263 57.25 33.375V5.375C57.25 2.82368 55.1763 0.75 52.625 0.75H5.375C2.82368 0.75 0.75 2.82368 0.75 5.375V33.375C0.75 35.9263 2.82368 38 5.375 38ZM3 5.375C3 4.06582 4.06582 3 5.375 3H52.625C53.9342 3 55 4.06582 55 5.375V33.375C55 34.6842 53.9342 35.75 52.625 35.75H5.375C4.06582 35.75 3 34.6842 3 33.375V5.375Z" fill="black" stroke="black" stroke-width="0.5"/>
<path d="M26.0895 14.1513C26.0913 9.51386 22.3288 5.75146 17.6898 5.75146C13.0507 5.75146 9.29004 9.51214 9.29004 14.1512C9.29004 18.7903 13.0507 22.551 17.6898 22.551C22.3289 22.551 26.0895 18.7904 26.0895 14.1513ZM26.0895 14.1513L25.8395 14.1512L26.0895 14.1513ZM17.6898 8.00146C21.0814 8.00146 23.8395 10.7612 23.8395 14.1512C23.8395 17.5428 21.0798 20.301 17.6898 20.301C14.2997 20.301 11.54 17.5445 11.54 14.153C11.54 10.7612 14.2982 8.00146 17.6898 8.00146Z" fill="black" stroke="black" stroke-width="0.5"/>
<path d="M22.419 33.064L22.8572 33.5655V32.8995V20.3135V20.0635H22.6072H20.8572H20.6072V20.3135V27.5717L18.1964 24.8144L18.0132 24.6049L17.8245 24.8094L15.1064 27.7538V20.4692V20.2192H14.8564H13.1064H12.8564V20.4692V32.868V33.5073L13.2901 33.0376L17.9681 27.971L22.419 33.064Z" fill="black" stroke="black" stroke-width="0.5"/>
<path d="M30.4512 10.1313H30.2012V10.3813V12.1313V12.3813H30.4512H48.4604H48.7104V12.1313V10.3813V10.1313H48.4604H30.4512Z" fill="black" stroke="black" stroke-width="0.5"/>
<path d="M30.4512 16.2563H30.2012V16.5063V18.2563V18.5063H30.4512H48.4604H48.7104V18.2563V16.5063V16.2563H48.4604H30.4512Z" fill="black" stroke="black" stroke-width="0.5"/>
<path d="M30.4512 22.3813H30.2012V22.6313V24.3813V24.6313H30.4512H48.4604H48.7104V24.3813V22.6313V22.3813H48.4604H30.4512Z" fill="black" stroke="black" stroke-width="0.5"/>
</svg>
