<svg width="57" height="56" viewBox="0 0 57 56" fill="none" xmlns="http://www.w3.org/2000/svg">
<path d="M54.5362 0H31.1769C30.7408 0 30.3671 0.186874 30.0556 0.43604L0.467186 30.0245C-0.155729 30.6474 -0.155729 31.644 0.467186 32.2047L23.8265 55.564C24.1379 55.8754 24.5117 56 24.9477 56C25.3838 56 25.7575 55.8754 26.069 55.564L55.6574 25.9755C55.9689 25.6641 56.0934 25.2903 56.0934 24.8543V1.55729C56.0934 0.685206 55.4082 0 54.5362 0ZM52.9789 24.2937L24.9477 52.3248L3.76863 31.1457L31.7998 3.11457H52.9789V24.2937Z" fill="black"/>
<path d="M45.1924 15.5727C47.7463 15.5727 49.8642 13.4548 49.8642 10.9009C49.8642 8.34691 47.7463 6.229 45.1924 6.229C42.6384 6.229 40.5205 8.34691 40.5205 10.9009C40.5205 13.4548 42.6384 15.5727 45.1924 15.5727ZM45.1924 9.34358C46.0644 9.34358 46.7497 10.0288 46.7497 10.9009C46.7497 11.7729 46.0644 12.4581 45.1924 12.4581C44.3203 12.4581 43.6351 11.7729 43.6351 10.9009C43.6351 10.0288 44.3203 9.34358 45.1924 9.34358Z" fill="black"/>
<path d="M29.6199 17.13C29.6199 16.258 28.9347 15.5728 28.0626 15.5728C27.1905 15.5728 26.5053 16.258 26.5053 17.13V18.6873H25.6955C22.7055 18.6873 20.2139 21.1167 20.2139 24.169C20.2139 27.2213 22.6432 29.6506 25.6955 29.6506H26.5053V34.2602H21.8334C19.8401 34.2602 19.8401 37.3748 21.8334 37.3748H26.5053V38.932C26.5053 39.8041 27.1905 40.4893 28.0626 40.4893C28.9347 40.4893 29.6199 39.8041 29.6199 38.932V37.3748H30.4297C33.4196 37.3748 35.9113 34.9454 35.9113 31.8931C35.9113 28.8408 33.4819 26.4115 30.4297 26.4115H29.6199V21.8019H34.2917C36.2851 21.8019 36.2851 18.6873 34.2917 18.6873H29.6199V17.13ZM26.5053 26.4738H25.6955C24.3874 26.4738 23.3284 25.4148 23.3284 24.1067C23.3284 22.7986 24.3874 21.7396 25.6955 21.7396H26.5053V26.4738ZM30.4297 29.5883C31.7378 29.5883 32.7967 30.6473 32.7967 31.9554C32.7967 33.2635 31.6755 34.2602 30.4297 34.2602H29.6199V29.5883H30.4297Z" fill="black"/>
</svg>
